<?xml version="1.0" encoding="utf-8"?>
<!-- Generator: Adobe Illustrator 27.8.0, SVG Export Plug-In . SVG Version: 6.00 Build 0)  -->
<svg version="1.1" id="Layer_1" xmlns="http://www.w3.org/2000/svg" xmlns:xlink="http://www.w3.org/1999/xlink" x="0px" y="0px"
	 viewBox="0 0 445 300" style="enable-background:new 0 0 445 300;" xml:space="preserve">
<style type="text/css">
	.st0{fill:#EFF1F7;}
	.st1{fill:#DB1F28;}
	.st2{fill:#4592CF;}
	.st3{fill:#CEDAFD;}
	.st4{fill:#0F3554;}
	.st5{fill:#664862;}
	.st6{fill:#122A4B;}
	.st7{fill:#1A2E35;}
	.st8{fill:#C3E0ED;}
	.st9{fill:#14629F;}
	.st10{fill:#3795E2;}
	.st11{fill:#E1E2E8;}
	.st12{fill:#FFFFFF;}
	.st13{fill:#025DA8;}
	.st14{fill:#0F1628;}
	.st15{fill:#E9E9E9;}
	.st16{fill:#ECA48B;}
	.st17{fill:#E7E2DE;}
	.st18{fill:#D2D2D2;}
	.st19{fill:#A2BBCD;}
	.st20{fill:#ACD1DD;}
	.st21{fill:#69625C;}
	.st22{fill:#302725;}
	.st23{fill:#E7E7E7;}
	.st24{fill:#ACACAC;}
	.st25{fill:#E8EA85;}
	.st26{fill:#EAB0E5;}
	.st27{fill:#8CA1B8;}
	.st28{fill:#EAA289;}
	.st29{fill:#D4806D;}
	.st30{fill:#ABA4AC;}
	.st31{fill:#400303;}
	.st32{fill:#390A0A;}
	.st33{fill:#EC8271;}
	.st34{fill:#7F3F1D;}
	.st35{fill:#CA3E3E;}
	.st36{fill:#A1A1A1;}
	.st37{fill:#D6D6D6;}
	.st38{fill:#8EB5BB;}
	.st39{fill:#C5E4E6;}
	.st40{fill:#C0C0C0;}
	.st41{fill:#3B3D3D;}
	.st42{fill:#A0A6A6;}
	.st43{fill:#AEAEAE;}
	.st44{fill:#90DAF4;}
	.st45{fill:#D1806D;}
	.st46{fill:#F1AA90;}
	.st47{fill:#7C8B8B;}
	.st48{fill:#F3F7FA;}
	.st49{fill:#454D77;}
	.st50{opacity:0.51;}
	.st51{fill:#95A3FB;}
	.st52{opacity:0.16;}
	.st53{opacity:0.19;}
	.st54{opacity:0.27;}
	.st55{fill:#633925;}
	.st56{fill:#E7E7F2;}
	.st57{fill:#2F3332;}
	.st58{fill:#FFA340;}
	.st59{fill:#FFD840;}
	.st60{fill:#FFE066;}
</style>
<g>
	<g>
		<path class="st0" d="M35,199.2c-31.8,22.9-34,67.2-15.3,99.2c20,0.8,40.1,0.2,60.1-1.6c20.2-1.8,40.2-5,60.5-5.6
			c20.5-0.6,41,1.5,61.4,2.8c29.9,1.9,59.9,2.3,89.9,2.8c34.6,0.5,69.2,0.9,103.7,1.4c3.1,0,6.3,0,9-1.4c2.8-1.5,4.6-4.5,6.2-7.3
			C446.4,225,451.6,119,392.1,66c-19.7-17.6-44.6-28.8-70.3-34.6c-34.9-7.9-73.1-5.7-104.2,12c-36.8,20.9-53.4,61.1-78,93.4
			c-12.1,15.9-26.1,30.1-44.7,38.1c-19.6,8.4-41.7,11.4-59.4,24C35.3,199,35.1,199.1,35,199.2z"/>
	</g>
</g>
<g>
	<g>
		<path class="st0" d="M107.2,13c11.9,10.3,9.1,35.1,2.1,48c-13.7,25.1-43,50.9-73.2,50.7c-15.1,0-30.8-11.1-28.2-27.6
			C9.6,73.8,16.7,65.4,24.1,58C37.2,45,52,33.8,67,23.1C78.2,15.1,93.7,1.3,107.2,13z"/>
	</g>
</g>
<g>
	<g>
		<g>
			<path class="st1" d="M292.4,47.8c-22.9,0-42.9,11.8-54.6,29.5h-0.1L231.4,88l-6.3-10.7H225c-11.7-17.8-31.7-29.5-54.6-29.5
				c-36.1,0-65.3,29.2-65.3,65.3c0,3.1-0.7,23.4,22.9,54.2l9.1,11.2c18.4,21.5,47.6,49.4,93.8,84.5l0.2,0.5c0.1-0.1,0.2-0.1,0.2-0.2
				c0.1,0.1,0.2,0.1,0.2,0.2l12.8-10.2c5.5-4.3,10.8-8.5,15.8-12.6l0,0l2.8-2.7l-0.2,0.6c39.4-32.5,62.3-57.7,75.7-76.2l0,0
				c0,0,5.3-6.8,8.4-12.6c11.1-18.7,10.9-33.5,10.9-36.5C357.7,77,328.5,47.8,292.4,47.8z"/>
		</g>
	</g>
</g>
<g>
	<g>
		<g>
			<circle class="st2" cx="240" cy="147" r="14.9"/>
		</g>
	</g>
	<g>
		<g>
			<circle class="st3" cx="240" cy="147" r="10.2"/>
		</g>
	</g>
	<g>
		<g>
			<polygon class="st2" points="308,75.2 308,80.7 363.4,81.1 363.4,75.5 			"/>
		</g>
	</g>
	<g>
		<g>
			<path class="st2" d="M299.7,13.4c-14.8,7.8-12.7,30.4,6.2,67.3c11.9,23.3,26.5,44.1,26.7,44.3l4.6-3.2
				c-0.1-0.2-14.5-20.7-26.3-43.6c-9.7-18.9-23.7-51.9-8.6-59.8L299.7,13.4z"/>
		</g>
	</g>
	<g>
		<g>
			<path class="st4" d="M306.8,22.7l-4,1.3c-0.7,0.2-1.5-0.2-1.7-0.9l-4-12c-0.2-0.7,0.2-1.5,0.9-1.7l4-1.3c0.7-0.2,1.5,0.2,1.7,0.9
				l4,12C307.9,21.7,307.5,22.5,306.8,22.7z"/>
		</g>
	</g>
	<g>
		<g>
			<path class="st2" d="M371.4,13.4c14.8,7.8,12.7,30.4-6.2,67.3c-11.9,23.3-26.5,44.1-26.7,44.3l-4.6-3.2
				c0.1-0.2,14.5-20.7,26.3-43.6c9.7-18.9,23.7-51.9,8.6-59.8L371.4,13.4z"/>
		</g>
	</g>
	<g>
		<g>
			<path class="st4" d="M364.3,22.7l4,1.3c0.7,0.2,1.5-0.2,1.7-0.9l4-12c0.2-0.7-0.2-1.5-0.9-1.7l-4-1.3c-0.7-0.2-1.5,0.2-1.7,0.9
				l-4,12C363.2,21.7,363.6,22.5,364.3,22.7z"/>
		</g>
	</g>
	<g>
		<g>
			<rect x="332.7" y="121.3" class="st5" width="6" height="10.9"/>
		</g>
	</g>
	<g>
		<g>
			<path class="st6" d="M308.2,231.3c17.1,0,30.9-13.9,30.9-30.9v-78.2c0-1.9-1.5-3.4-3.4-3.4s-3.4,1.5-3.4,3.4v78.2
				c0,13.3-10.8,24.2-24.2,24.2c-13.3,0-24.2-10.8-24.2-24.2v-27.9c0-15.7-12.7-28.4-28.4-28.4h-13c-1.9,0-3.4,1.5-3.4,3.4
				s1.5,3.4,3.4,3.4h13c11.9,0,21.6,9.7,21.6,21.6v27.9C277.3,217.4,291.1,231.3,308.2,231.3z"/>
		</g>
	</g>
	<g>
		<g>
			<path class="st7" d="M332.4,140.5v-15.9c-1.1-1.5-5.6-8.2-11.4-17.5l4.7-3.1c4,6.5,7.5,11.7,9.5,14.7c0.2,0,0.4-0.1,0.6-0.1
				c0.1,0,0.2,0,0.3,0c2.1-3,5.5-8.3,9.5-14.8l4.8,2.8c-5.4,8.7-9.7,15.1-11.2,17.3v16.4h-6.8V140.5z"/>
		</g>
	</g>
</g>
<g>
	<g>
		<g>
			<g>
				
					<rect x="391.4" y="160.7" transform="matrix(0.3607 -0.9327 0.9327 0.3607 95.5201 471.7653)" class="st8" width="1" height="11.1"/>
			</g>
		</g>
		<g>
			<g>
				
					<rect x="393.5" y="155" transform="matrix(0.3636 -0.9316 0.9316 0.3636 98.9105 470.7832)" class="st8" width="1" height="16"/>
			</g>
		</g>
		<g>
			<g>
				
					<rect x="395.4" y="150.3" transform="matrix(0.383 -0.9237 0.9237 0.383 97.0816 463.9619)" class="st8" width="1" height="18"/>
			</g>
		</g>
		<g>
			<g>
				
					<rect x="397.5" y="146.4" transform="matrix(0.411 -0.9116 0.9116 0.411 92.5777 454.451)" class="st8" width="1" height="18.3"/>
			</g>
		</g>
		<g>
			<g>
				
					<rect x="400.1" y="142.7" transform="matrix(0.4376 -0.8992 0.8992 0.4376 88.6634 445.7152)" class="st8" width="1" height="18.6"/>
			</g>
		</g>
		<g>
			<g>
				
					<rect x="402.4" y="138.7" transform="matrix(0.4834 -0.8754 0.8754 0.4834 78.4983 429.2115)" class="st8" width="1" height="18.7"/>
			</g>
		</g>
	</g>
	<g>
		<g>
			<g>
				
					<rect x="384" y="171.6" transform="matrix(0.7272 -0.6865 0.6865 0.7272 -16.7091 312.2627)" class="st8" width="1" height="11.1"/>
			</g>
		</g>
		<g>
			<g>
				
					<rect x="381.8" y="172.4" transform="matrix(0.7251 -0.6887 0.6887 0.7251 -19.1359 312.8895)" class="st8" width="1" height="16"/>
			</g>
		</g>
		<g>
			<g>
				
					<rect x="379.1" y="174.6" transform="matrix(0.7105 -0.7037 0.7037 0.7105 -19.2978 320.3115)" class="st8" width="1" height="18"/>
			</g>
		</g>
		<g>
			<g>
				
					<rect x="376.4" y="177.8" transform="matrix(0.6887 -0.7251 0.7251 0.6887 -18.2202 331.5146)" class="st8" width="1" height="18.3"/>
			</g>
		</g>
		<g>
			<g>
				
					<rect x="374.1" y="181.4" transform="matrix(0.6671 -0.745 0.745 0.6671 -17.3622 342.5633)" class="st8" width="1" height="18.6"/>
			</g>
		</g>
		<g>
			<g>
				
					<rect x="371.4" y="184.9" transform="matrix(0.6277 -0.7784 0.7784 0.6277 -12.7634 361.7836)" class="st8" width="1" height="18.7"/>
			</g>
		</g>
	</g>
	<g>
		<g>
			<path class="st8" d="M361.5,192.6c-0.6-0.4-0.7-1.1-0.3-1.7l7.4-11c4-5.9,11.5-7.8,18.8-9.6c7-1.7,13.6-3.4,16.9-8.3l8.2-12.3
				c0.4-0.6,1.1-0.7,1.7-0.3s0.7,1.1,0.3,1.7l-8.2,12.3c-3.8,5.7-11.2,7.5-18.3,9.3c-7.2,1.8-13.9,3.5-17.4,8.6l-7.4,11
				C362.8,192.8,362.1,193,361.5,192.6z"/>
		</g>
	</g>
	<g>
		<g>
			<path class="st8" d="M377.9,203.6c-0.6-0.4-0.7-1.1-0.3-1.7l7.4-11c3.5-5.2,2.5-12.1,1.4-19.4c-1.1-7.3-2.2-14.8,1.7-20.5
				l8.2-12.3c0.4-0.6,1.1-0.7,1.7-0.3s0.7,1.1,0.3,1.7l-8.2,12.3c-3.3,4.9-2.3,11.7-1.3,18.8c1.1,7.4,2.2,15.1-1.8,21.1l-7.4,11
				C379.2,203.8,378.4,203.9,377.9,203.6z"/>
		</g>
	</g>
</g>
<g>
	<g>
		<g>
			<g>
				
					<rect x="407.7" y="19.2" transform="matrix(0.7789 -0.6272 0.6272 0.7789 78.7915 262.4945)" class="st8" width="7.9" height="0.7"/>
			</g>
		</g>
		<g>
			<g>
				
					<rect x="404.7" y="16.7" transform="matrix(0.7808 -0.6248 0.6248 0.7808 79.2831 260.1124)" class="st8" width="11.3" height="0.7"/>
			</g>
		</g>
		<g>
			<g>
				
					<rect x="402.5" y="14.3" transform="matrix(0.7938 -0.6082 0.6082 0.7938 75.4124 251.6898)" class="st8" width="12.7" height="0.7"/>
			</g>
		</g>
		<g>
			<g>
				
					<rect x="400.8" y="11.7" transform="matrix(0.8119 -0.5837 0.5837 0.8119 69.5454 240.0038)" class="st8" width="12.9" height="0.7"/>
			</g>
		</g>
		<g>
			<g>
				
					<rect x="399.4" y="8.8" transform="matrix(0.8287 -0.5596 0.5596 0.8287 64.383 228.7528)" class="st8" width="13.1" height="0.7"/>
			</g>
		</g>
		<g>
			<g>
				
					<rect x="397.8" y="6.1" transform="matrix(0.8565 -0.5161 0.5161 0.8565 54.6896 209.6587)" class="st8" width="13.2" height="0.7"/>
			</g>
		</g>
	</g>
	<g>
		<g>
			<g>
				
					<rect x="411.8" y="27.6" transform="matrix(0.973 -0.2306 0.2306 0.973 4.7602 96.6267)" class="st8" width="7.9" height="0.7"/>
			</g>
		</g>
		<g>
			<g>
				
					<rect x="411.3" y="30.1" transform="matrix(0.9723 -0.2336 0.2336 0.9723 4.4254 98.2447)" class="st8" width="11.3" height="0.7"/>
			</g>
		</g>
		<g>
			<g>
				
					<rect x="411.5" y="32.8" transform="matrix(0.9672 -0.2539 0.2539 0.9672 5.2699 107.1797)" class="st8" width="12.7" height="0.7"/>
			</g>
		</g>
		<g>
			<g>
				
					<rect x="412.5" y="35.7" transform="matrix(0.959 -0.2833 0.2833 0.959 6.9444 120.1727)" class="st8" width="12.9" height="0.7"/>
			</g>
		</g>
		<g>
			<g>
				
					<rect x="413.9" y="38.4" transform="matrix(0.9503 -0.3114 0.3114 0.9503 8.8365 132.8548)" class="st8" width="13.1" height="0.7"/>
			</g>
		</g>
		<g>
			<g>
				<rect x="415.1" y="41.3" transform="matrix(0.933 -0.36 0.36 0.933 13.2787 154.6019)" class="st8" width="13.2" height="0.7"/>
			</g>
		</g>
	</g>
	<g>
		<g>
			<path class="st8" d="M417,47.4c-0.4,0.2-0.9,0-1.1-0.4l-4.1-8.4c-2.2-4.5-0.7-9.8,0.8-14.9c1.4-4.9,2.8-9.5,0.9-13.3L408.9,1
				c-0.2-0.4,0-0.9,0.4-1.1s0.9,0,1.1,0.4l4.6,9.4c2.1,4.3,0.6,9.5-0.8,14.5s-2.8,9.8-0.9,13.7l4.1,8.4
				C417.6,46.7,417.4,47.2,417,47.4z"/>
		</g>
	</g>
	<g>
		<g>
			<path class="st8" d="M429.5,41.3c-0.4,0.2-0.9,0-1.1-0.4l-4.1-8.4c-1.9-3.9-6.5-5.8-11.4-7.7c-4.8-1.9-9.8-3.9-12-8.3l-4.6-9.4
				c-0.2-0.4,0-0.9,0.4-1.1s0.9,0,1.1,0.4l4.6,9.4c1.8,3.8,6.3,5.5,11.1,7.4c4.9,2,10,4,12.3,8.5l4.1,8.4
				C430.1,40.6,429.9,41.1,429.5,41.3z"/>
		</g>
	</g>
</g>
<g>
	<g>
		<g>
			<g>
				
					<rect x="16.5" y="14.2" transform="matrix(0.7789 -0.6272 0.6272 0.7789 -4.8447 15.053)" class="st8" width="4.8" height="0.4"/>
			</g>
		</g>
		<g>
			<g>
				<rect x="14.7" y="12.7" transform="matrix(0.7808 -0.6248 0.6248 0.7808 -4.08 14.18)" class="st8" width="6.9" height="0.4"/>
			</g>
		</g>
		<g>
			<g>
				
					<rect x="13.3" y="11.2" transform="matrix(0.7938 -0.6082 0.6082 0.7938 -3.41 12.7987)" class="st8" width="7.7" height="0.4"/>
			</g>
		</g>
		<g>
			<g>
				
					<rect x="12.3" y="9.6" transform="matrix(0.8119 -0.5837 0.5837 0.8119 -2.6664 11.3346)" class="st8" width="7.9" height="0.4"/>
			</g>
		</g>
		<g>
			<g>
				<rect x="11.5" y="7.8" transform="matrix(0.8287 -0.5596 0.5596 0.8287 -1.829 10.0273)" class="st8" width="8" height="0.4"/>
			</g>
		</g>
		<g>
			<g>
				<rect x="10.5" y="6.2" transform="matrix(0.8565 -0.5161 0.5161 0.8565 -1.2303 8.4113)" class="st8" width="8" height="0.4"/>
			</g>
		</g>
	</g>
	<g>
		<g>
			<g>
				<rect x="19" y="19.2" transform="matrix(0.973 -0.2306 0.2306 0.973 -3.8977 5.4548)" class="st8" width="4.8" height="0.4"/>
			</g>
		</g>
		<g>
			<g>
				
					<rect x="18.7" y="20.7" transform="matrix(0.9723 -0.2336 0.2336 0.9723 -4.2686 5.7492)" class="st8" width="6.9" height="0.4"/>
			</g>
		</g>
		<g>
			<g>
				
					<rect x="18.8" y="22.4" transform="matrix(0.9672 -0.2539 0.2539 0.9672 -5.0003 6.4901)" class="st8" width="7.7" height="0.4"/>
			</g>
		</g>
		<g>
			<g>
				<rect x="19.5" y="24.1" transform="matrix(0.959 -0.2833 0.2833 0.959 -5.9205 7.6334)" class="st8" width="7.9" height="0.4"/>
			</g>
		</g>
		<g>
			<g>
				<rect x="20.3" y="25.8" transform="matrix(0.9503 -0.3114 0.3114 0.9503 -6.8881 8.8567)" class="st8" width="8" height="0.4"/>
			</g>
		</g>
		<g>
			<g>
				<rect x="21" y="27.6" transform="matrix(0.933 -0.36 0.36 0.933 -8.335 10.865)" class="st8" width="8" height="0.4"/>
			</g>
		</g>
	</g>
	<g>
		<g>
			<path class="st8" d="M22.2,31.3c-0.3,0.1-0.6,0-0.7-0.2L19,25.9c-1.3-2.8-0.4-6,0.5-9.1c0.9-3,1.7-5.8,0.6-8.1L17.3,3
				c-0.1-0.3,0-0.6,0.2-0.7c0.3-0.1,0.6,0,0.7,0.2L21,8.2c1.3,2.6,0.4,5.8-0.5,8.8s-1.7,5.9-0.5,8.3l2.5,5.1
				C22.5,30.8,22.4,31.2,22.2,31.3z"/>
		</g>
	</g>
	<g>
		<g>
			<path class="st8" d="M29.8,27.6c-0.3,0.1-0.6,0-0.7-0.2l-2.5-5.1c-1.2-2.4-4-3.5-6.9-4.7s-6-2.4-7.3-5L9.6,6.8
				c-0.1-0.3,0-0.6,0.2-0.7c0.3-0.1,0.6,0,0.7,0.2l2.8,5.7c1.1,2.3,3.8,3.4,6.7,4.5c3,1.2,6.1,2.4,7.4,5.2l2.5,5.1
				C30.1,27.1,30,27.4,29.8,27.6z"/>
		</g>
	</g>
</g>
<g>
	<g>
		<g>
			<g>
				
					<rect x="193.1" y="15.9" transform="matrix(9.657366e-02 -0.9953 0.9953 9.657366e-02 156.9461 208.3602)" class="st8" width="0.3" height="3.6"/>
			</g>
		</g>
		<g>
			<g>
				
					<rect x="193.5" y="13.9" transform="matrix(9.963086e-02 -0.995 0.995 9.963086e-02 157.9082 207.5367)" class="st8" width="0.3" height="5.2"/>
			</g>
		</g>
		<g>
			<g>
				
					<rect x="193.8" y="12.3" transform="matrix(0.1205 -0.9927 0.9927 0.1205 155.5006 205.8453)" class="st8" width="0.3" height="5.8"/>
			</g>
		</g>
		<g>
			<g>
				
					<rect x="194.1" y="10.9" transform="matrix(0.1507 -0.9886 0.9886 0.1507 151.3031 203.7933)" class="st8" width="0.3" height="5.9"/>
			</g>
		</g>
		<g>
			<g>
				
					<rect x="194.6" y="9.5" transform="matrix(0.1797 -0.9837 0.9837 0.1797 147.4624 201.8414)" class="st8" width="0.3" height="6"/>
			</g>
		</g>
		<g>
			<g>
				
					<rect x="195" y="8" transform="matrix(0.2302 -0.9731 0.9731 0.2302 139.4596 198.4681)" class="st8" width="0.3" height="6.1"/>
			</g>
		</g>
	</g>
	<g>
		<g>
			<g>
				
					<rect x="191.8" y="20" transform="matrix(0.5158 -0.8567 0.8567 0.5158 74.3012 174.9952)" class="st8" width="0.3" height="3.6"/>
			</g>
		</g>
		<g>
			<g>
				
					<rect x="191.4" y="20.4" transform="matrix(0.5131 -0.8583 0.8583 0.5131 73.5678 175.5947)" class="st8" width="0.3" height="5.2"/>
			</g>
		</g>
		<g>
			<g>
				
					<rect x="190.8" y="21.3" transform="matrix(0.495 -0.8689 0.8689 0.495 75.4292 178.1378)" class="st8" width="0.3" height="5.8"/>
			</g>
		</g>
		<g>
			<g>
				
					<rect x="190.3" y="22.5" transform="matrix(0.4683 -0.8836 0.8836 0.4683 78.7882 181.761)" class="st8" width="0.3" height="5.9"/>
			</g>
		</g>
		<g>
			<g>
				
					<rect x="189.8" y="23.9" transform="matrix(0.4421 -0.897 0.897 0.4421 81.8697 185.3556)" class="st8" width="0.3" height="6"/>
			</g>
		</g>
		<g>
			<g>
				
					<rect x="189.4" y="25.2" transform="matrix(0.3953 -0.9186 0.9186 0.3953 88.6837 191.156)" class="st8" width="0.3" height="6.1"/>
			</g>
		</g>
	</g>
	<g>
		<g>
			<path class="st8" d="M186.1,28.6c-0.2-0.1-0.3-0.3-0.2-0.5l1.3-4.1c0.7-2.2,2.9-3.4,5-4.6c2-1.2,4-2.2,4.6-4.1l1.5-4.5
				c0.1-0.2,0.3-0.3,0.5-0.2s0.3,0.3,0.2,0.5l-1.5,4.5c-0.7,2.1-2.8,3.3-4.9,4.5c-2.1,1.2-4,2.3-4.7,4.2l-1.3,4.1
				C186.5,28.5,186.3,28.6,186.1,28.6z"/>
		</g>
	</g>
	<g>
		<g>
			<path class="st8" d="M192.2,30.6c-0.2-0.1-0.3-0.3-0.2-0.5l1.3-4.1c0.6-1.9-0.3-4-1.3-6.2s-2-4.4-1.3-6.5l1.5-4.5
				c0.1-0.2,0.3-0.3,0.5-0.2s0.3,0.3,0.2,0.5l-1.5,4.5c-0.6,1.8,0.3,3.8,1.2,6c1,2.2,2,4.5,1.3,6.7l-1.3,4.1
				C192.6,30.5,192.4,30.6,192.2,30.6z"/>
		</g>
	</g>
</g>
<g>
	<g>
		<g>
			<g>
				
					<rect x="24.2" y="147.3" transform="matrix(0.8281 -0.5606 0.5606 0.8281 -78.1142 40.2617)" class="st0" width="4.8" height="0.4"/>
			</g>
		</g>
		<g>
			<g>
				
					<rect x="22.5" y="145.7" transform="matrix(0.8298 -0.5581 0.5581 0.8298 -76.9951 39.3263)" class="st0" width="7" height="0.4"/>
			</g>
		</g>
		<g>
			<g>
				
					<rect x="21.2" y="144.1" transform="matrix(0.8413 -0.5406 0.5406 0.8413 -74.0314 36.4598)" class="st0" width="7.8" height="0.4"/>
			</g>
		</g>
		<g>
			<g>
				
					<rect x="20.3" y="142.4" transform="matrix(0.8574 -0.5147 0.5147 0.8574 -69.9334 32.8317)" class="st0" width="8" height="0.4"/>
			</g>
		</g>
		<g>
			<g>
				
					<rect x="19.6" y="140.6" transform="matrix(0.8722 -0.4892 0.4892 0.8722 -65.8635 29.5581)" class="st0" width="8.1" height="0.4"/>
			</g>
		</g>
		<g>
			<g>
				
					<rect x="18.8" y="138.9" transform="matrix(0.8962 -0.4436 0.4436 0.8962 -59.3277 24.5744)" class="st0" width="8.1" height="0.4"/>
			</g>
		</g>
	</g>
	<g>
		<g>
			<g>
				
					<rect x="26.2" y="152.6" transform="matrix(0.9888 -0.1494 0.1494 0.9888 -22.5093 5.9862)" class="st0" width="4.8" height="0.4"/>
			</g>
		</g>
		<g>
			<g>
				
					<rect x="25.8" y="154.2" transform="matrix(0.9883 -0.1525 0.1525 0.9883 -23.2023 6.2743)" class="st0" width="7" height="0.4"/>
			</g>
		</g>
		<g>
			<g>
				
					<rect x="25.8" y="156" transform="matrix(0.9849 -0.1732 0.1732 0.9849 -26.6049 7.5068)" class="st0" width="7.8" height="0.4"/>
			</g>
		</g>
		<g>
			<g>
				
					<rect x="26.3" y="157.8" transform="matrix(0.9792 -0.2031 0.2031 0.9792 -31.4571 9.4474)" class="st0" width="8" height="0.4"/>
			</g>
		</g>
		<g>
			<g>
				
					<rect x="27" y="159.5" transform="matrix(0.9728 -0.2318 0.2318 0.9728 -36.1725 11.545)" class="st0" width="8.1" height="0.4"/>
			</g>
		</g>
		<g>
			<g>
				
					<rect x="27.6" y="161.4" transform="matrix(0.9595 -0.2817 0.2817 0.9595 -44.2383 15.4619)" class="st0" width="8.1" height="0.4"/>
			</g>
		</g>
	</g>
	<g>
		<g>
			<path class="st0" d="M28.5,164.9c-0.3,0.1-0.6,0-0.7-0.3l-2.1-5.4c-1.1-2.9,0.1-6.1,1.2-9.1c1.1-2.9,2.2-5.7,1.2-8.1l-2.3-6
				c-0.1-0.3,0-0.6,0.3-0.7c0.3-0.1,0.6,0,0.7,0.3l2.3,6c1.1,2.8-0.1,5.9-1.2,8.9s-2.2,5.8-1.2,8.4l2.1,5.4
				C28.9,164.5,28.7,164.8,28.5,164.9z"/>
		</g>
	</g>
	<g>
		<g>
			<path class="st0" d="M36.4,161.7c-0.3,0.1-0.6,0-0.7-0.3l-2.1-5.4c-1-2.5-3.7-3.9-6.6-5.3c-2.9-1.4-5.8-2.9-6.9-5.7l-2.3-6
				c-0.1-0.3,0-0.6,0.3-0.7c0.3-0.1,0.6,0,0.7,0.3l2.3,6c0.9,2.4,3.6,3.7,6.4,5.1c2.9,1.5,6,3,7.1,5.9l2.1,5.4
				C36.8,161.3,36.7,161.6,36.4,161.7z"/>
		</g>
	</g>
</g>
<g>
	<g>
		<path class="st9" d="M438,300.1H7c-3.9,0-7-3.1-7-7s3.1-7,7-7h431c3.9,0,7,3.1,7,7S441.9,300.1,438,300.1z"/>
	</g>
</g>
<g>
	<g>
		<path class="st10" d="M146.4,31.8H44.7c-2.3,0-4.1,1.8-4.1,4.1v128.4c0,2.3,1.8,4.1,4.1,4.1h101.8c2.3,0,4.1-1.8,4.1-4.1V35.9
			C150.5,33.7,148.7,31.8,146.4,31.8z"/>
	</g>
	<g>
		<rect x="50.3" y="40.2" class="st11" width="90.5" height="118.6"/>
	</g>
	<g>
		<path class="st12" d="M50.3,40.2v28.4c0,32.7-7.2,64.9-21.1,94.5l0,0h96.5l2.4-6.8c8.4-23.8,12.7-48.8,12.7-74.1v-42
			C140.8,40.2,50.3,40.2,50.3,40.2z"/>
	</g>
	<g>
		<path class="st13" d="M117.2,27h-16.6c0-2.8-2.2-7-5-7s-5,4.2-5,7H73.9c-1,0-1.7,1-1.4,1.9l5.1,15.8c0.2,0.6,0.8,1,1.4,1h33.2
			c0.6,0,1.2-0.4,1.4-1l5.1-15.8C118.9,28,118.2,27,117.2,27z M95.6,27.6c-1.1,0-2-0.9-2-2s0.9-2,2-2s2,0.9,2,2
			C97.5,26.7,96.6,27.6,95.6,27.6z"/>
	</g>
	<g>
		<g>
			<g>
				<g>
					<g>
						<g>
							<g>
								<g>
									<g>
										<g>
											<path class="st10" d="M68.9,66.2L68.9,66.2c-5.9,0-10.7,4.8-10.7,10.7l0,0c0,5.9,4.8,10.7,10.7,10.7l0,0
												c5.9,0,10.7-4.8,10.7-10.7l0,0C79.6,71,74.8,66.2,68.9,66.2z"/>
										</g>
									</g>
								</g>
							</g>
						</g>
					</g>
				</g>
			</g>
		</g>
		<g>
			<g>
				<g>
					<g>
						<g>
							<g>
								<g>
									<g>
										<g>
											<g>
												<polygon class="st12" points="68.4,82 62.8,76.4 65,74.2 68.4,77.6 74.3,71.7 76.5,73.9 												"/>
											</g>
										</g>
									</g>
								</g>
							</g>
						</g>
					</g>
				</g>
			</g>
		</g>
	</g>
	<g>
		<g>
			<rect x="80.8" y="33.5" class="st14" width="29.5" height="0.6"/>
		</g>
		<g>
			<rect x="80.8" y="39.3" class="st14" width="29.5" height="0.6"/>
		</g>
	</g>
	<g>
		<g>
			<path class="st6" d="M72.6,58.1h0.8v4.2h-0.8V58.1z"/>
		</g>
		<g>
			<path class="st6" d="M76.1,58.1h0.8l1.8,2.7v-2.7h0.8v4.2h-0.8l-1.8-2.7v2.7h-0.8V58.1z"/>
		</g>
		<g>
			<path class="st6" d="M84.3,58.7l-0.6,0.5c-0.2-0.3-0.4-0.4-0.6-0.4c-0.1,0-0.2,0-0.3,0.1c-0.1,0.1-0.1,0.1-0.1,0.2
				c0,0.1,0,0.1,0.1,0.2c0.1,0.1,0.3,0.3,0.6,0.5c0.3,0.3,0.5,0.4,0.6,0.5c0.2,0.2,0.3,0.3,0.3,0.5c0.1,0.1,0.1,0.3,0.1,0.5
				c0,0.3-0.1,0.6-0.4,0.8c-0.2,0.2-0.5,0.3-0.9,0.3c-0.3,0-0.6-0.1-0.8-0.2c-0.2-0.1-0.4-0.4-0.6-0.7l0.7-0.4
				c0.2,0.4,0.4,0.6,0.7,0.6c0.1,0,0.3,0,0.3-0.1c0.1-0.1,0.1-0.2,0.1-0.3s0-0.2-0.1-0.3s-0.2-0.2-0.5-0.4c-0.5-0.4-0.7-0.7-0.9-0.9
				c-0.1-0.2-0.2-0.4-0.2-0.6c0-0.3,0.1-0.5,0.3-0.7c0.2-0.2,0.5-0.3,0.8-0.3c0.2,0,0.4,0,0.6,0.1C83.9,58.3,84.1,58.4,84.3,58.7z"
				/>
		</g>
		<g>
			<path class="st6" d="M86.8,58.1h0.8v2.7c0,0.2,0,0.4,0.1,0.5c0,0.1,0.1,0.2,0.2,0.2c0.1,0.1,0.2,0.1,0.3,0.1c0.1,0,0.3,0,0.4-0.1
				s0.2-0.1,0.2-0.2c0-0.1,0.1-0.3,0.1-0.6v-2.6h0.8v2.5c0,0.4,0,0.7-0.1,0.9c0,0.2-0.1,0.3-0.3,0.5c-0.1,0.2-0.3,0.3-0.5,0.3
				c-0.2,0.1-0.4,0.1-0.6,0.1c-0.3,0-0.6-0.1-0.8-0.2c-0.2-0.1-0.4-0.3-0.5-0.5s-0.1-0.6-0.1-1.1V58.1z"/>
		</g>
		<g>
			<path class="st6" d="M92.4,58.1h0.8c0.5,0,0.8,0,1,0.1s0.4,0.2,0.5,0.4s0.2,0.4,0.2,0.7s-0.1,0.5-0.2,0.7s-0.3,0.3-0.6,0.4l1,1.9
				h-0.9l-0.9-1.8h-0.1v1.8h-0.8V58.1z M93.2,59.8h0.2c0.3,0,0.4,0,0.5-0.1s0.1-0.2,0.1-0.3s0-0.2-0.1-0.2c0-0.1-0.1-0.1-0.2-0.1
				s-0.2,0-0.4,0h-0.2L93.2,59.8L93.2,59.8z"/>
		</g>
		<g>
			<path class="st6" d="M98.7,58.1h0.8l1.6,4.2h-0.8l-0.3-0.9h-1.7L98,62.3h-0.8L98.7,58.1z M99.1,59.2l-0.6,1.4h1.1L99.1,59.2z"/>
		</g>
		<g>
			<path class="st6" d="M103.5,58.1h0.8l1.8,2.7v-2.7h0.8v4.2h-0.8l-1.8-2.7v2.7h-0.8V58.1z"/>
		</g>
		<g>
			<path class="st6" d="M113.4,58.9l-0.6,0.5c-0.4-0.4-0.8-0.6-1.3-0.6c-0.4,0-0.7,0.1-1,0.4c-0.3,0.3-0.4,0.6-0.4,1
				c0,0.3,0.1,0.5,0.2,0.7s0.3,0.4,0.5,0.5s0.5,0.2,0.7,0.2s0.4,0,0.6-0.1s0.4-0.2,0.6-0.5l0.5,0.6c-0.3,0.3-0.6,0.5-0.9,0.6
				s-0.6,0.2-0.9,0.2c-0.6,0-1.2-0.2-1.6-0.6c-0.4-0.4-0.6-0.9-0.6-1.6c0-0.4,0.1-0.8,0.3-1.1c0.2-0.3,0.5-0.6,0.8-0.8
				c0.4-0.2,0.7-0.3,1.1-0.3c0.3,0,0.7,0.1,1,0.2C112.9,58.4,113.1,58.6,113.4,58.9z"/>
		</g>
		<g>
			<path class="st6" d="M115.8,58.1h2.3v0.8h-1.5v0.8h1.5v0.8h-1.5v1.1h1.5v0.8h-2.3V58.1z"/>
		</g>
	</g>
	<g>
		<rect x="89.3" y="71.4" class="st14" width="37" height="0.6"/>
	</g>
	<g>
		<rect x="85.9" y="81.7" class="st14" width="45.1" height="0.6"/>
	</g>
	<g>
		<rect x="57.3" y="93.8" class="st14" width="73.8" height="0.6"/>
	</g>
	<g>
		<rect x="56.2" y="106.3" class="st14" width="76.8" height="0.6"/>
	</g>
	<g>
		<rect x="53" y="119.6" class="st14" width="76.8" height="0.6"/>
	</g>
	<g>
		<rect x="49.1" y="133" class="st14" width="76.8" height="0.6"/>
	</g>
	<g>
		<path class="st6" d="M86.6,51.4v3.7h-0.9v-1.5h-1.4v1.5h-0.9v-3.7h0.9v1.4h1.4v-1.4H86.6z"/>
		<path class="st6" d="M89.3,52.2v0.7h1.2v0.7h-1.2v0.8h1.4v0.7h-2.3v-3.7h2.3v0.7L89.3,52.2L89.3,52.2z"/>
		<path class="st6" d="M94.6,54.5h-1.4L93,55.1h-0.9l1.3-3.7h1l1.3,3.7h-0.9L94.6,54.5z M94.4,53.8L94,52.4l-0.5,1.3L94.4,53.8
			L94.4,53.8z"/>
		<path class="st6" d="M98.3,54.4h1.2v0.7h-2.1v-3.7h0.9V54.4z"/>
		<path class="st6" d="M103.7,51.4v0.7h-1v3h-0.9v-3h-1v-0.7H103.7z"/>
		<path class="st6" d="M108.5,51.4v3.7h-0.9v-1.5h-1.4v1.5h-0.9v-3.7h0.9v1.4h1.4v-1.4H108.5z"/>
	</g>
</g>
<g>
	<g>
		<g>
			<g>
				<path class="st15" d="M100.9,285.1c0,0,11,1.1,11,0.1c0-0.4,0-0.8-0.2-1.3c-0.2-0.7-0.5-1.4-1.2-1.9c-0.4-0.3-3.4-2.2-5.3-3.2
					c-2.9-1.6-4-1.4-4.5,4.1C100.6,283.9,100.7,284.6,100.9,285.1z"/>
				<g>
					<path class="st16" d="M105.4,274c-0.1,1.2-0.1,2.1-0.2,2.9c0,1.2-0.1,1.8-0.1,1.9c-0.9,0.4-2.2,0.1-3.3-0.5c0,0,0-0.5-0.1-1.4
						c-0.1-0.7-0.1-1.7-0.2-2.9H105.4z"/>
				</g>
				<path class="st12" d="M100.9,285.1c0,0,11,1.1,11,0.1c0-0.4,0-0.8-0.2-1.3c-2.4,0.1-7.5,0-11-1
					C100.6,283.9,100.7,284.6,100.9,285.1z"/>
				<path class="st17" d="M101.8,277c0.1,0.9,0.1,1.3,0.1,1.4c1.1,0.6,2.4,1,3.3,0.5c0-0.1,0-0.7,0.1-1.9
					C104.3,277,102.9,277.1,101.8,277z"/>
			</g>
			<g>
				<path class="st18" d="M106.6,280.9c0.3-0.3,0.7-0.5,1.1-0.5c0.3,0,0.8,0,1,0.4c0,0.1,0,0.1-0.1,0.1c-0.3,0-0.5-0.1-0.8-0.1
					s-0.6,0.2-0.8,0.4c-0.1,0.1-0.2,0.1-0.3,0.1c-0.1,0-0.1-0.1-0.2-0.1C106.5,281.1,106.5,281,106.6,280.9z"/>
				<path class="st18" d="M105.8,280.3c0.1-0.4,0.6-0.6,1-0.7c0.4,0,0.7,0.1,0.9,0.4c0,0.1,0,0.1-0.1,0.1c-0.2,0-0.5,0-0.7,0
					c-0.3,0.1-0.5,0.2-0.7,0.4C106,280.7,105.7,280.5,105.8,280.3z"/>
				<path class="st18" d="M105.5,278.9c0.3-0.1,0.8-0.1,0.9,0.3c0,0.1-0.1,0.2-0.2,0.2c-0.2-0.1-0.4-0.1-0.6,0s-0.4,0.4-0.7,0.5
					c-0.1,0-0.2-0.1-0.2-0.2C104.6,279.4,105.2,279.1,105.5,278.9z"/>
			</g>
		</g>
		<g>
			<g>
				<path class="st15" d="M124,285.1c0,0,11,1.1,11,0.1c0-0.4,0-0.8-0.2-1.3c-0.2-0.7-0.5-1.4-1.2-1.9c-0.4-0.3-3.4-2.2-5.3-3.2
					c-2.9-1.6-4-1.4-4.5,4.1C123.7,283.9,123.8,284.6,124,285.1z"/>
				<g>
					<path class="st16" d="M128.5,274c-0.1,1.2-0.1,2.1-0.2,2.9c0,1.2-0.1,1.8-0.1,1.9c-0.9,0.4-2.2,0.1-3.3-0.5c0,0,0-0.5-0.1-1.4
						c-0.1-0.7-0.1-1.7-0.2-2.9H128.5z"/>
				</g>
				<path class="st12" d="M124,285.1c0,0,11,1.1,11,0.1c0-0.4,0-0.8-0.2-1.3c-2.4,0.1-7.5,0-11-1C123.7,283.9,123.8,284.6,124,285.1
					z"/>
				<path class="st17" d="M124.9,277c0.1,0.9,0.1,1.3,0.1,1.4c1.1,0.6,2.4,1,3.3,0.5c0-0.1,0-0.7,0.1-1.9
					C127.4,277,126,277.1,124.9,277z"/>
			</g>
			<g>
				<path class="st18" d="M129.7,280.9c0.3-0.3,0.7-0.5,1.1-0.5c0.3,0,0.8,0,1,0.4c0,0.1,0,0.1-0.1,0.1c-0.3,0-0.5-0.1-0.8-0.1
					s-0.6,0.2-0.8,0.4c-0.1,0.1-0.2,0.1-0.3,0.1s-0.1-0.1-0.2-0.1C129.5,281.1,129.6,281,129.7,280.9z"/>
				<path class="st18" d="M128.8,280.3c0.1-0.4,0.6-0.6,1-0.7c0.4,0,0.7,0.1,0.9,0.4c0,0.1,0,0.1-0.1,0.1c-0.2,0-0.5,0-0.7,0
					c-0.3,0.1-0.5,0.2-0.7,0.4C129,280.7,128.8,280.5,128.8,280.3z"/>
				<path class="st18" d="M128.6,278.9c0.3-0.1,0.8-0.1,0.9,0.3c0,0.1-0.1,0.2-0.2,0.2c-0.2-0.1-0.4-0.1-0.6,0
					c-0.2,0.1-0.4,0.4-0.7,0.5c-0.1,0-0.2-0.1-0.2-0.2C127.7,279.4,128.3,279.1,128.6,278.9z"/>
			</g>
		</g>
		<path class="st7" d="M140.3,133.6L140.3,133.6c0-0.1,0-0.2,0-0.2c1-2.8,0.8-5.6-0.3-8.4c-1.9-5.3-6.7-8.9-12.4-9.7
			c-5-0.7-10.8,1.2-13.3,5.5c-1.6,2.7-1.7,6.1-3.2,8.9S108,135,107,138c-4.2,12.8,13.2,20.1,23.9,18.9c5.6-0.7,9.4-5.5,10.6-10.4
			c0.6-2.5,0.1-5.3-0.5-7.7C140.7,137,140.3,135.3,140.3,133.6z"/>
		<path class="st8" d="M151.7,195.7c0.8-3.1-13.5-10.2-13.9-17.6c-0.3-7.3-0.3-20.4-3.3-22.6c-3-2.3-5.2,5.4-5.2,5.4
			s-0.6,14.5,4.6,25c2.5,5.2,11,10.2,12.6,10.2C148.6,196.1,150.9,197,151.7,195.7z"/>
		<path class="st19" d="M118,184.5c0,0,6.1,23.6-11.5,91.4c0,0-4.6,0.1-5.9-0.7c0,0-1.1-62.1,7.8-91.5L118,184.5z"/>
		<path class="st19" d="M120.6,183.8c0,0,14.1,21.8,9.8,91.7c0,0-4.5,1-5.9,0.5c0,0-12.9-60.8-9.8-91.3L120.6,183.8z"/>
		<path class="st20" d="M134.5,155.5c-11-5.1-29.6-4-29.6-4s2.2,32.3,2.5,33.5c0,0-6.5,8.7-7.1,18.8c0,0,25.5,5.4,32.7,0.7
			c0,0-5.9-12.7-11.1-19.2L134.5,155.5z"/>
		<path class="st19" d="M109.7,168.6c0,0,13,1.3,16.5-1.3C126.3,167.3,121.8,178,109.7,168.6z"/>
		<g>
			<path class="st21" d="M119.4,174.6c1.3-1.2,2.9-1.9,4.4-2.9c1.8-1.2,3.3-3.1,4.6-4.9l0,0c0.3-0.6,0.5-1.3,0.6-2.1v-0.1
				c0-2.5,0.1-4.8-0.7-7.2c-0.8-2.5-3-4.8-5.1-6.4c-0.5-0.4-0.2-1.2,0.2-0.9c1.1,0.8,3,2.3,3.8,3.5c1.1,1.6,2,3.3,2.5,5.1
				c0.5,2,0.4,4,0.1,6c-0.2,1.2-0.4,2.5-0.5,3.7c-0.2,1.8-0.2,3.6,0,5.4c0.3,2.4-0.3,4.5-1.4,6.5c-1,1.9-4.1,5.3-6.4,3.1
				c-0.4-0.4,0.2-1,0.6-0.6c1.4,1.3,3.4-0.6,4.2-1.7c1.3-1.8,2.1-3.7,2.2-5.9c0.1-1.7-0.4-3.4-0.4-5c0-0.6,0.1-1.1,0.1-1.6
				c-1.2,1.5-2.4,2.8-3.9,3.9c-2.7,2-8.9,4.5-4.2,8.6c0.4,0.4-0.2,1-0.6,0.6C116.8,179.5,116.9,177,119.4,174.6z"/>
			<path class="st21" d="M111.2,157.4c0.4-1.3,1.1-2.4,1.9-3.5c2.3-3.1,4.5-3.6,4.5-3.6c0.4,0,0.6,0.6,0.3,0.9
				c-1.8,2-4.2,2.7-5.4,5.2c-1.8,3.7-1,7.3,0.7,10.9c0.2,0.5-0.5,1-0.8,0.5C110.8,164.3,109.9,161.1,111.2,157.4z"/>
			<path class="st22" d="M119,180.6c0.1-0.2,0.2-0.3,0.5-0.2c0.9,0.3,1.8,1.4,0.8,2.1c-0.8,0.6-1.5-0.9-1.6-1.5
				C118.7,180.8,118.8,180.6,119,180.6z"/>
			<path class="st22" d="M122.5,183.8c0,0.2-0.1,0.4-0.4,0.4c-0.9,0.1-2.2-0.5-1.6-1.6c0.5-0.9,1.8,0.2,2,0.7
				C122.7,183.4,122.6,183.6,122.5,183.8z"/>
			<g>
				<circle class="st23" cx="113" cy="167.7" r="2.5"/>
				<path class="st24" d="M111.7,167.7c0,0.7,0.6,1.3,1.3,1.3c0.7,0,1.3-0.6,1.3-1.3s-0.6-1.3-1.3-1.3
					C112.3,166.4,111.7,167,111.7,167.7z"/>
			</g>
		</g>
		<g>
			<g>
				<g>
					<polygon class="st25" points="120.6,190.2 121.3,195.4 124.8,195.4 125.6,190.2 					"/>
					<polygon class="st26" points="127.6,190.2 128.3,195.4 131.8,195.4 132.6,190.2 					"/>
					<polygon class="st26" points="134.2,190.2 135,195.4 138.4,195.4 139.2,190.2 					"/>
				</g>
				<polygon class="st26" points="142.6,190.2 143.3,195.4 146.7,195.4 147.5,190.2 				"/>
			</g>
			<path class="st27" d="M151.7,195.7c-0.8-0.3-1.6-0.3-2.4-0.4c-1.5-0.1-3.1-0.1-4.6-0.1c-3.3,0.1-6.6,0.1-9.9-0.1
				c-3.3-0.1-6.6-0.2-9.9-0.3c-1.5,0-3.1-0.1-4.6-0.1c-0.5,0-1.6,0.2-2.4,0.1v2.4c1.2,0.5,2.6,0.5,3.5,0.6c3.5,0.4,7,0.4,10.6,0.5
				c3.5,0.1,7,0.3,10.5,0.2c1.6-0.1,3.3-0.2,4.9-0.3c1.3-0.1,2.9,0,4.3-0.5V195.7z"/>
		</g>
		<path class="st28" d="M122.5,196.6c-0.1,0-0.1,0-0.2,0c-0.3-0.8-1.3-1.4-2.1-1.7c-0.3-0.1-0.6-0.2-0.9-0.3c0.3,0,0.5-0.1,0.8-0.2
			c0.5-0.2,0.5-1,0-1.3c-0.7-0.3-2.3,0-3.3-0.2c-0.9-0.2-1.9-0.3-2.3,1.7c-0.1,0.1-1.7,0.7,2.6,3.3c1.3,0.8,5,0.9,5.8-0.7
			C123.1,197.1,122.9,196.6,122.5,196.6z"/>
		<path class="st8" d="M116.8,192.2c-10.6-7.2-13-12.5-12-17.7c3.5-18.2,3.5-26-1-22.6c-2.5,1.9-7.1,18.1-7.1,27.2
			c0,7.1,11.6,16.2,18.1,18C115.8,195.1,115.8,194.2,116.8,192.2z"/>
		<path class="st28" d="M151.6,193.7c-0.5-0.6-2.2-1.6-2.8-0.6c-0.1,0.1-0.1,0.2,0,0.3c0.3,0.5,1,0.7,1.5,0.9c-0.3,0-0.7,0.1-1,0.2
			c-1.2,0.2-2.5,1.2-2,2.3c0.1,0.2,0.3,0.3,0.5,0.4c0,0.1,0.1,0.2,0.1,0.4c0.5,1,2.5,0.8,3.3,0.4c0.5-0.2,1.1-0.6,1.1-1.2
			C152.3,196.7,152.3,194.5,151.6,193.7z"/>
		<g>
			<path class="st29" d="M120.2,155.5c-1.4-0.2-3.5-0.8-3.4-2.2l0.9-4.6l0.8-4c0.2-1.4,1.4-2.4,2.8-2.2c0.7,0.1,1.3,0.4,1.7,0.9
				c0.4,0.5,0.6,1.2,0.5,1.9l-0.1,4.1l-0.1,3.9C123.4,155.6,120.2,155.5,120.2,155.5z"/>
		</g>
		<g>
			<g>
				<g>
					<path class="st16" d="M134.9,136.2c0,0,3.2-3.3,3,0.8c-0.1,3.2-2.8,4.8-4,3.8C132.7,139.9,134.9,136.2,134.9,136.2z"/>
					<path class="st29" d="M134.7,136.9c0,0,2.2-2,2.4-0.7s-0.4,2.7-0.4,2.7s0.2-1.7-1-1.2c0,0,0.2,2.9-1.4,1.3
						C134.3,139,133.7,137.9,134.7,136.9z"/>
				</g>
			</g>
			<path class="st16" d="M134.6,137.2c-0.9,7.9-4.9,12-10.8,11.4c-6.2-0.6-11.3-6-10.4-13.9s4.3-15.9,12.5-14.9
				C133.9,120.8,135.5,129.3,134.6,137.2z"/>
			<g>
				<g>
					<path class="st16" d="M114.1,133.1c0,0-1.7-4.8-3.7-1.3c-1.6,2.8,0.5,5.9,2.3,5.8C114.5,137.6,114.1,133.1,114.1,133.1z"/>
					<path class="st29" d="M113.9,133.8c0,0-1.3-3.1-2.2-2.1c-0.9,1-1,2.5-1,2.5s0.7-1.5,1.7-0.4c0,0-1.7,2.3,0.9,2
						C113.3,135.9,114.4,135.2,113.9,133.8z"/>
				</g>
			</g>
			<g>
				<path class="st12" d="M127.6,135c-0.3,1.6,0.6,3.1,2.2,3.5c1.6,0.3,3.1-0.6,3.5-2.2c0.3-1.6-0.6-3.1-2.2-3.5
					C129.5,132.5,128,133.4,127.6,135z"/>
				<g>
					<path class="st30" d="M132.9,136.9c-0.6,1.2-1.8,1.7-2.6,1.3s-0.9-1.7-0.3-2.9c0.6-1.2,1.8-1.7,2.6-1.3
						C133.4,134.5,133.5,135.8,132.9,136.9z"/>
					<path class="st31" d="M132.5,136.7c-0.5,0.8-1.3,1.2-1.8,0.9c-0.6-0.3-0.7-1.2-0.2-2.1c0.5-0.8,1.3-1.2,1.8-0.9
						C132.8,135,132.9,135.9,132.5,136.7z"/>
					<path class="st12" d="M133.3,135.3c-0.1,0.2-0.5,0.3-0.7,0.1c-0.3-0.2-0.4-0.5-0.3-0.7c0.1-0.2,0.5-0.3,0.8-0.1
						C133.3,134.8,133.4,135.1,133.3,135.3z"/>
				</g>
				<path class="st32" d="M131.1,132.4c1.9,0.2,3,2.2,2.6,4c0,0.2-0.3,0.2-0.3,0c-0.5-1.2-0.5-2.3-1.9-3c-1.9-1-3.5,0.8-4,2.4
					c-0.1,0.2-0.3,0.1-0.2-0.1C127.5,133.7,129,132.1,131.1,132.4z"/>
			</g>
			<path class="st29" d="M122.5,139.2c0,0,1.1,2.6,3,0.3L122.5,139.2z"/>
			<g>
				<path class="st12" d="M122.7,134.1c-0.2,1.6-1.7,2.7-3.2,2.5c-1.6-0.2-2.7-1.7-2.5-3.2c0.2-1.6,1.7-2.7,3.2-2.5
					C121.8,131.1,122.9,132.5,122.7,134.1z"/>
				<g>
					<path class="st30" d="M122.6,134.6c-0.4,1.3-1.5,2-2.4,1.7c-1-0.3-1.4-1.6-1-2.8c0.4-1.3,1.5-2,2.4-1.7S123,133.4,122.6,134.6z
						"/>
					<path class="st31" d="M122.1,134.5c-0.3,0.9-1.1,1.5-1.7,1.2c-0.7-0.2-1-1.1-0.7-2s1.1-1.5,1.7-1.2
						C122,132.7,122.4,133.6,122.1,134.5z"/>
					<path class="st12" d="M122.6,133c-0.1,0.2-0.4,0.3-0.8,0.2s-0.6-0.4-0.5-0.6c0.1-0.2,0.4-0.4,0.8-0.2
						C122.5,132.4,122.7,132.7,122.6,133z"/>
				</g>
				<path class="st32" d="M120.2,130.4c-1.9-0.4-3.6,1.1-3.8,2.9c0,0.2,0.2,0.2,0.3,0.1c0.9-1,1.3-2,2.8-2.2c2.2-0.3,3,2,2.9,3.7
					c0,0.2,0.2,0.2,0.3,0C123.1,132.9,122.3,130.9,120.2,130.4z"/>
			</g>
			<path class="st33" d="M121.7,138.4c-0.2,1.2-1.6,2-3.3,1.8c-1.7-0.2-2.9-1.3-2.8-2.5s1.6-2,3.3-1.8
				C120.6,136.1,121.9,137.2,121.7,138.4z"/>
			<path class="st33" d="M132.8,140.6c-0.3,1.1-1.8,1.8-3.4,1.4c-1.6-0.4-2.8-1.6-2.5-2.7c0.3-1.1,1.8-1.8,3.4-1.4
				C132,138.3,133.1,139.5,132.8,140.6z"/>
			<path class="st34" d="M122.4,128.7c-0.5-0.4-1.2-0.5-1.8-0.7c-0.7-0.2-1.4-0.2-2-0.1c-1.4,0.2-2.1,1.1-2.9,2.2
				c-0.1,0.1,0.1,0.3,0.2,0.2c0.9-0.7,1.9-1.4,3-1.6c0.7-0.1,1.4,0.1,2,0.3c0.5,0.2,1,0.4,1.5,0.2
				C122.5,129,122.5,128.8,122.4,128.7z"/>
			<path class="st34" d="M128.4,129.5c0.5-0.3,1.3-0.2,1.9-0.2c0.7,0,1.4,0.1,2,0.4c1.3,0.6,1.8,1.6,2.3,2.8
				c0.1,0.1-0.1,0.3-0.2,0.1c-0.7-0.9-1.5-1.9-2.5-2.3c-0.7-0.3-1.4-0.3-2.1-0.2c-0.5,0-1,0.1-1.4-0.2
				C128.2,129.8,128.3,129.6,128.4,129.5z"/>
			<path class="st7" d="M138.2,128.3c0-4.8-4.9-8.6-8.9-10.3h-8.7c-1.1,1.1-0.7,4.2-0.2,5.5c0.9,2.5,3.5,4.4,5.7,5.6
				c2.2,1.3,9.2,2.8,8.7,6.5C136.1,133.2,138.2,131.5,138.2,128.3z"/>
			<path class="st35" d="M120,139.9c0,0,2.4,7.2,7.2,1.2c0,0-0.8,0.1-1.4-0.2c-0.7-0.4-1.5-0.4-2.1,0.4c0,0-0.6-1.4-2.3-1
				C121,140.3,120.5,140.1,120,139.9z"/>
		</g>
	</g>
	<path class="st36" d="M251.2,186.2c0-2.8-2.2-5-5-5h-72.9c-2.8,0-5,2.2-5,5v61.9c0,2.8,2.2,5,5,5h72.9c2.8,0,5-2.2,5-5L251.2,186.2
		L251.2,186.2z M242,192.2h-66c-1.9,0-3.4-1.6-3.4-3.5c0-0.9,0.4-1.9,1-2.5s1.5-1.1,2.4-1.1h66c1.9,0,3.4,1.7,3.4,3.6
		C245.4,190.5,243.9,192.2,242,192.2z"/>
	<path class="st37" d="M246.8,186.2c0-2.8-2.2-5-5-5h-72.9c-2.8,0-5,2.2-5,5v61.9c0,2.8,2.2,5,5,5h72.9c2.8,0,5-2.2,5-5L246.8,186.2
		L246.8,186.2z M237.5,192.2h-66c-1.9,0-3.4-1.6-3.4-3.5c0-0.9,0.4-1.9,1-2.5s1.5-1.1,2.4-1.1h66c1.9,0,3.4,1.7,3.4,3.6
		C240.9,190.5,239.4,192.2,237.5,192.2z"/>
	<g>
		<g>
			<path class="st9" d="M229.8,177.7c-0.2-0.1-0.4-0.2-0.5-0.3c-6.9-3-14.9-2.7-22.2-3.2c-4.2-0.3-8.3,0.2-12.4,0.7
				c-3.8,0.4-7.6,0.6-11.3,1.3c-6.2,1-9.9,5.5-12.8,11c-2.3,4.1-4.4,8.3-6.4,12.6c-0.7,1.6-4.9,12.8-5.1,15.2
				c-0.4,4.8,7.5,6,10.4,6.6c3.2,0.6,6.4,0.9,9.7,1.2c3.6,0.4,7.2,1,10.9,1.1c6.6,0.2,13-1,19.6-1.4c0.2,0,0.5,0,0.7,0
				c5-0.3,10.2-0.5,14.5-3.3c4.2-2.7,5.5-8.6,6.5-13.2c1.5-6.5,2.7-13,2.9-19.7C234.3,182.5,233,179.4,229.8,177.7z"/>
			<path class="st2" d="M234.2,186.2c-0.2,6.7-1.5,13.2-2.9,19.7c-1,4.6-2.4,10.6-6.5,13.2c-4.3,2.8-9.5,3-14.5,3.3
				c-0.5-2.4-0.3-5.5,0.4-8.4c2.5-10.8,8.5-21.3,14.1-30.7c1.1-1.8,2.9-3.9,5-5.5C233,179.4,234.3,182.5,234.2,186.2z"/>
		</g>
		<path class="st38" d="M206.5,178.7c-1.9-1.4-5.1-3.4-7.6-2.7c-4,1.1-7.2,7.4-9.1,10.5c-2.8,4.5-6,8.5-7.8,13.6
			c-1.6,4.5-1.2,8.1-1.5,12.7l9.1,8.5c4.9-0.1,9.9-7.6,12.4-10.9c3.8-5.1,6.1-10.2,7.2-16.5C210.1,188,211.8,182.8,206.5,178.7z"/>
	</g>
	<path class="st28" d="M176.9,187.8c-2.4-2.7-4.7,2.8-6,6.2c-0.5,1-0.9,2.1-1.5,3.1c-0.9,1.6-1.7,3.3-2.8,4.8
		c-1.5,2.2-4,3.2-6.4,4.1c-4.5,1.7-9.3,2.2-13.9,3.6c-0.2,0.1-0.4,0.1-0.6,0.2l0,0c-2.2-0.1-4.4-0.4-6.5,0.2
		c-1.6,0.5-3.6,0.9-4.7,2.2c-0.1,0.2-0.1,0.5,0.1,0.6c0.7,0.3,3.5-0.5,4.1-0.6c-1.3,0.7-4.6,2.6-4.9,4.1c-0.1,0.6,0.4,0.9,0.9,1
		c1.4,0.3,2.8-0.5,3.9-1.2c1.2-0.7,2.8-1,4.1-1.7h0.1c1.8-0.3,3.5-0.4,5.3-0.6c3.6-0.3,7.2-0.6,10.7-1.4c6.7-1.4,12-4.7,15.4-10.3
		c1.5-2.4,3.7-7.2,4.5-9.9C179.3,191,178.1,189.2,176.9,187.8z"/>
	<path class="st39" d="M181.6,185.6c-0.2-0.9-0.7-1.5-1.4-1.5c-0.1-0.1-0.3-0.2-0.5-0.2c-2.9,0.2-4.6,1-6.6,3.1
		c-2.6,2.7-4.5,6.1-7.3,8.5c-0.6,0.5-1.1,1-1.4,1.5c2.5,2.2,5.2,4.6,8.1,6.3c0.7-0.6,1.2-1.5,1.7-2.4c1.8-2.9,4.3-5.1,5.8-8.2
		C181,190.8,182,187.8,181.6,185.6z"/>
	<g>
		<path class="st40" d="M183.3,252.3l-34.7,2.8v13.2l7.1,0.4c0,0,0-4,0.4-6.4c0.4-2.3,16.4-3.2,22.3-3
			C184.3,259.5,183.3,252.3,183.3,252.3z"/>
		<g>
			<ellipse class="st41" cx="157.3" cy="278.4" rx="8.1" ry="8.1"/>
			<path class="st42" d="M161.9,278.8c0,2-1.6,3.6-3.6,3.6s-3.6-1.6-3.6-3.6s1.6-3.6,3.6-3.6C160.3,275.2,161.9,276.9,161.9,278.8z"
				/>
		</g>
		<path class="st43" d="M162.8,266.3h-14.2c0,0-2.9,0.1-2.4,1.8c0.5,1.7,11.1,10.3,12.8,9.3C160.8,276.4,167.9,267.4,162.8,266.3z"
			/>
	</g>
	<path class="st2" d="M236.3,235.7c0,7.5-6.1,13.6-13.6,13.6H39.2c-7.5,0-13.6-6.1-13.6-13.6v-1.4c0-7.5,6.1-13.6,13.6-13.6h183.5
		c7.5,0,13.6,6.1,13.6,13.6V235.7z"/>
	<path class="st37" d="M234.1,251.7v3.4c0,1.9-2.7,3.5-5.9,3.5H32.9c-3.2,0-5.6-1.5-5.6-3.5v-3.4c0-1.9,2.4-3.6,5.6-3.6h195.3
		C231.4,248.2,234.1,249.8,234.1,251.7z"/>
	<g>
		<path class="st40" d="M115.7,248.2c-0.1,3.3-0.5,7.7-1.8,10.4c-0.8,1.7-1.9,2.8-3.4,2.7c-6.3-0.2-23.3,0.7-23.8,3.2
			s-0.5,6.8-0.5,6.8l-7.8-0.5v-22.7L115.7,248.2L115.7,248.2z"/>
		<g>
			<path class="st41" d="M96.6,281.7c0,4.7-3.9,8.6-8.6,8.6c-4.8,0-8.6-3.9-8.6-8.6c0-4.8,3.9-8.6,8.6-8.6
				C92.8,273.1,96.6,277,96.6,281.7z"/>
			<path class="st42" d="M92.9,282.2c0,2.1-1.7,3.8-3.8,3.8c-2.1,0-3.8-1.7-3.8-3.8c0-2.1,1.7-3.8,3.8-3.8
				C91.2,278.4,92.9,280.1,92.9,282.2z"/>
		</g>
		<path class="st40" d="M93.9,269H78.8c0,0-3.1,0-2.6,1.9c0.6,1.8,11.8,11,13.6,9.9C91.7,279.7,99.2,270.1,93.9,269z"/>
	</g>
	<g>
		<path class="st40" d="M230.7,248.2c-0.1,3.3-0.5,7.7-1.8,10.4c-0.8,1.7-1.9,2.8-3.4,2.7c-6.3-0.2-23.3,0.7-23.8,3.2
			s-0.4,6.8-0.4,6.8l-7.7-0.5v-22.7L230.7,248.2L230.7,248.2z"/>
		<g>
			<path class="st41" d="M211.6,281.7c0,4.7-3.9,8.6-8.6,8.6c-4.7,0-8.6-3.9-8.6-8.6c0-4.8,3.9-8.6,8.6-8.6
				C207.8,273.1,211.6,277,211.6,281.7z"/>
			<path class="st42" d="M207.9,282.2c0,2.1-1.7,3.8-3.8,3.8s-3.8-1.7-3.8-3.8c0-2.1,1.7-3.8,3.8-3.8
				C206.2,278.4,207.9,280.1,207.9,282.2z"/>
		</g>
		<path class="st40" d="M208.9,269h-15.1c0,0-3.1,0-2.6,1.9c0.6,1.8,11.8,11,13.6,9.9C206.7,279.7,214.2,270.1,208.9,269z"/>
	</g>
	<path class="st44" d="M202.8,187.8c-4.4-3.4-8.4-5.2-13.4-5.1c-2.7,0-5.7,0.2-8.2,1.1c-3.1,1.1-4,3.7-5,6.5
		c-7.6,19.6-19.6,23.9-19.6,23.9l13.5,17.6c7.2-1.4,14.5-4.4,20-9.4c3-2.7,5.4-6,7.3-9.6c2.6-4.8,5.2-9.9,6.3-15.2
		c0.6-3,1.1-6.3-0.5-9.1C203.1,188.3,203,188,202.8,187.8z"/>
	<path class="st45" d="M186.9,184.6c-1,2,3.2,3,3.2,3c1.8,0.4,4.8,0.6,5-0.7l0.7-7.9c0.2-1.2-1-2.5-2.9-2.9l0,0
		c-1.8-0.4-3.5,0.3-3.8,1.6L186.9,184.6z"/>
	<g>
		<path class="st46" d="M205,164.2c0,0.4-0.8,0.5-1,0.9c-3.1,7-3.8,17.5-13.6,16.5c-10-1-10-7.6-9-17.2c0-0.3,0-0.5,0.1-0.8
			c0.6-5.8,1.6-10.6,4.5-13.3c1.7-1.6,4.1-2.5,7.5-2.4c3.8,0.1,6.8,1.5,8.7,3.9C204.5,154.8,205.6,159,205,164.2z"/>
		<g>
			<path class="st12" d="M188.3,162.2c-0.2,2-1.5,3.4-2.8,3.3c-1.4-0.1-2.1-1.3-1.9-3.3c0.2-2,1.2-3.9,2.6-3.8
				C187.6,158.6,188.5,160.3,188.3,162.2z"/>
			<g>
				<path class="st47" d="M187.1,162.1c-0.4,1.5-1.4,2.6-2.3,2.4c-0.9-0.2-1.3-1.6-0.9-3.2c0.4-1.5,1.4-2.6,2.3-2.4
					C187.1,159.2,187.5,160.6,187.1,162.1z"/>
				<path class="st31" d="M186.7,162.1c-0.3,1.2-1.2,2-1.9,1.8c-0.8-0.2-1.1-1.3-0.8-2.5s1.2-2,1.9-1.8
					C186.6,159.7,187,160.9,186.7,162.1z"/>
				<path class="st12" d="M187.6,160.1c-0.1,0.3-0.5,0.4-1.1,0.2c-0.5-0.1-0.9-0.4-0.8-0.7c0.1-0.3,0.5-0.4,1.1-0.2
					C187.3,159.6,187.7,159.9,187.6,160.1z"/>
			</g>
		</g>
		<g>
			<path class="st12" d="M198,163.2c-0.2,2-1.5,3.4-2.8,3.3c-1.4-0.1-2.1-1.3-1.9-3.3c0.2-1.9,1.2-3.9,2.6-3.8
				C197.2,159.6,198.2,161.2,198,163.2z"/>
			<g>
				<path class="st47" d="M196.8,163.1c-0.4,1.5-1.4,2.6-2.3,2.4c-0.9-0.2-1.3-1.6-0.9-3.2c0.4-1.5,1.4-2.6,2.3-2.4
					C196.7,160.2,197.1,161.6,196.8,163.1z"/>
				<path class="st31" d="M196.4,163c-0.3,1.2-1.2,2-1.9,1.8c-0.8-0.2-1.1-1.3-0.8-2.5s1.2-2,1.9-1.8
					C196.3,160.7,196.7,161.8,196.4,163z"/>
				<path class="st12" d="M197.3,161.1c-0.1,0.3-0.5,0.4-1.1,0.2c-0.5-0.1-0.9-0.4-0.8-0.7c0.1-0.3,0.5-0.4,1.1-0.2
					C197,160.6,197.3,160.9,197.3,161.1z"/>
			</g>
		</g>
		<path class="st29" d="M186.6,167c0,0,1.9,4.9,4.5,0.8C191.1,167.9,187.7,167.8,186.6,167z"/>
		<path class="st7" d="M194.8,158.8c0.8,0.3,1.6,0.4,2.4,0.5c0.7,0.1,1.8,1,2.2,0.2c0.6-1.3-0.8-2.3-1.7-3c-0.8-0.7-2.2-0.8-3.2-0.4
			C193.4,156.7,193.7,158.3,194.8,158.8z"/>
		<path class="st7" d="M204.1,165.1c-0.6,2.2-2.9,5-7.2,5.6c-1.3,0.2-2.9,0.2-4.5-0.3c-1-0.3-3.9-0.1-4.4,0.9
			c-1.3-3.8-3.7-1.1-5-2.5s-1.6-4.4-1.6-4.4c-0.3,1.6-0.3,3.3-0.7,4.9c-0.5,2.3-1,4.5-0.6,6.8c0.8,4.9,1.7,7.7,6.3,8.8
			c3.9,0.9,10.6-0.7,12.6-3C204.3,175.9,204.6,166.2,204.1,165.1z"/>
		<path class="st7" d="M192.1,143.8c-4.8,0.3-8.1,8.3-13,6.8c2,1.4,2.6,3.2,5.5,3.4c3.1,0.2,5-1.7,7.7-2.6c-0.7,1.4-1.7,2.3-3.4,2.8
			c2.6,1.5,5,0,7.1-1.5c-0.3,0.7-1.5,2.2-1.1,3c1.1,2.3,4.4-1.4,5-2.5c0.7-1.1,2.7-0.6,2.7-0.6C200.5,148,197.8,143.4,192.1,143.8z"
			/>
		<path class="st7" d="M200.8,150.3l0.3,0.6c-2.1,0.9-0.3,12.6,0.3,13.9c0.9,1.9,2.1-1,3.4-1.9C207.3,159,208.4,149.1,200.8,150.3z"
			/>
		<path class="st7" d="M183.7,151.2c-2.8,3.1-3.2,7.4-2.1,11.4c0.2-1.8,0.8-3.4,1.8-5c1.2-1.8,1.8-3.6,2.4-5.7L183.7,151.2z"/>
		<g>
			<path class="st46" d="M203.9,162.9c0,0,4-5.5,4.9-0.3c0.9,5.1-2.8,7.2-5,6.5C201.7,168.4,203.9,162.9,203.9,162.9z"/>
			<path class="st29" d="M204.2,163.9c0,0,2.7-3.4,3.4-1.9c0.7,1.6,0.2,3.4,0.2,3.4s-0.3-2.1-1.9-1.1c0,0,1.1,3.5-1.8,2.2
				C204.2,166.6,203.1,165.5,204.2,163.9z"/>
		</g>
		<path class="st7" d="M187.7,155.6c-0.7-0.6-1.9-0.8-2.7-0.3s-2.1,1.2-1.9,2.6c0.2,0.9,1.3,0.2,1.9,0.3c0.7,0,1.4,0.2,2.1,0
			C188.1,157.8,188.6,156.4,187.7,155.6z"/>
		<path class="st12" d="M183.6,170.9c0,0,4.9,3.4,9.4,1.2C193,172.1,186.3,184.2,183.6,170.9z"/>
	</g>
	<g>
		<polygon class="st26" points="168.8,180.2 169.5,185.4 172.9,185.4 173.8,180.2 		"/>
		<path class="st28" d="M174.3,183.2c-0.8-1.2-4.7-0.4-5.9,0.1c-1.8,0.8-0.7,3.2-1.3,5c-1.8,5.1-4.6,10.5-5.3,15.8l3.9,5.9
			c5.8,0.1,6.1-10.9,6-14.3c0-2-0.6-5.5,0.3-7.2c0.3-0.6,1.6-0.3,2.2-1.4C174.9,185.9,175.4,184.6,174.3,183.2z"/>
	</g>
	<path class="st8" d="M194.5,224.4c-0.4-5.5-4.9-8.6-9.6-10.6c-2.6-1.1-5.4-1.9-8.1-2.9c-3.3-1.2-5.9-3.3-8.8-5.2
		c-5.1-3.3-10.8-3-16.6-2.2c-3.4,0.5-6.8,1-10.2,0.7c-3.7-0.2-7.3-1.6-10.9-2.2c-6.3-1-12.6,1.8-18.8,2.9c-3.5,0.6-7,0.7-10.5,0.5
		c-3.8-0.3-7.3-1.5-11-2.6c-2.9-0.8-5.8-1.3-8.8-1.2c-2.9,0.1-5.9,1.2-8.6,2.2c-4.6,1.7-8.5,4.5-11.6,8.1h-0.1
		c-3.4,2.4-5.6,6.4-6.7,10.3c-1,3.5,0,6.7,2.6,9.2c2.7,2.6,6.6,3.9,10.2,4.8c2.1,0.5,4.6,1.1,7,1.3c2.9,3,7.7,2.8,11.7,2.7
		c6.3-0.2,12.8-0.9,18.7,1.7c2.9,1.3,4.9,3.3,6.5,6c1.4,2.2,2.6,4.4,4.7,6.1c4.2,3.4,10.6,3,15.7,2.9c7.1-0.1,13.9-1,21-0.3
		c5.1,0.5,10.4,0.9,15.5,0.2c4.4-0.6,8.1-2.9,10.4-6.8c1.3-2.1,1.7-4.6,2.4-7c1.1-3.5,3.4-5.5,6.5-7.3
		C191.4,233.1,195,230.1,194.5,224.4z"/>
	<g>
		<path class="st36" d="M109.6,206.5c0-2.8-2.2-5-5-5h-80c-2.8,0-5,2.2-5,5v39.4c0,2.8,2.2,5,5,5h80c2.8,0,5-2.2,5-5V206.5z
			 M100.9,212.5H28c-1.9,0-3.4-1.5-3.4-3.4c0-0.9,0.4-1.9,1-2.6c0.6-0.6,1.5-1.2,2.4-1.2h72.9c1.9,0,3.4,1.7,3.4,3.6
			C104.3,210.8,102.8,212.5,100.9,212.5z"/>
		<path class="st40" d="M106.9,206.5c0-2.8-2.2-5-5-5h-80c-2.8,0-5,2.2-5,5v39.4c0,2.8,2.2,5,5,5h80c2.8,0,5-2.2,5-5V206.5z
			 M97.9,212.5H25c-1.9,0-3.4-1.5-3.4-3.4c0-0.9,0.4-1.9,1-2.6c0.6-0.6,1.5-1.2,2.4-1.2h72.9c1.9,0,3.4,1.7,3.4,3.6
			C101.3,210.8,99.8,212.5,97.9,212.5z"/>
	</g>
	<g>
		<path class="st28" d="M199.4,202.7c-1.5-3.2-5.3,1.4-7.4,4.4c-0.7,0.9-1.5,1.8-2.3,2.6c-1.3,1.3-2.5,2.7-4,3.9
			c-2,1.7-4.7,2-7.3,2.2c-4.8,0.4-9.5-0.4-14.3-0.3c-0.2,0-0.4,0-0.6,0l0,0c-2.1-0.7-4.1-1.6-6.4-1.5c-1.7,0-3.7-0.2-5.1,0.9
			c-0.2,0.1-0.2,0.5-0.1,0.6c0.6,0.5,3.5,0.5,4.1,0.5c-1.4,0.4-5.2,1.3-5.9,2.6c-0.3,0.5,0.1,1,0.6,1.2c1.3,0.6,2.8,0.2,4.1,0
			c1.4-0.3,3-0.2,4.4-0.5h0.1c1.8,0.2,3.5,0.5,5.3,0.9c3.5,0.7,7.1,1.4,10.7,1.6c6.8,0.4,12.9-1.3,17.7-5.8c2.1-1.9,5.5-5.9,7.1-8.3
			C201,206.4,200.2,204.3,199.4,202.7z"/>
		<path class="st44" d="M200.5,212.1c1.8-1.8,2.9-4.8,4.1-6.7c2-3.1,4.3-7.1,3.8-11c-0.4-2.9-2-5.5-5.1-5.8c-1-0.1-2.1,0.3-3.1,0.9
			c-1.4,0.5-2.5,1.5-3.5,3.1c-2.1,3.2-3.5,6.8-5.7,10c-0.7,1-2,2.3-2.6,3.6C192,208.9,196.2,210.7,200.5,212.1z"/>
	</g>
</g>
<g>
	<g>
		<g>
			<path class="st4" d="M369.7,238H366v-8.5h-25.5v6.9h-3.7v-8.7c0-1,0.8-1.9,1.9-1.9h29.2c1,0,1.9,0.8,1.9,1.9L369.7,238L369.7,238
				z"/>
		</g>
	</g>
	<g>
		<g>
			<path class="st8" d="M383.8,236.1h-62.1c-2.3,0-4.2,1.9-4.2,4.2v42.3c0,2.3,1.9,4.2,4.2,4.2h62.1c2.3,0,4.2-1.9,4.2-4.2v-42.3
				C388,238,386.1,236.1,383.8,236.1z"/>
		</g>
	</g>
	<g>
		<g>
			<circle class="st1" cx="352.3" cy="260.1" r="16.8"/>
		</g>
	</g>
	<g>
		<g>
			<g>
				<rect x="348" y="248.8" class="st12" width="8.6" height="22.6"/>
			</g>
		</g>
		<g>
			<g>
				<rect x="341" y="255.8" class="st12" width="22.6" height="8.6"/>
			</g>
		</g>
	</g>
	<g>
		<g>
			<rect x="336.1" y="234.6" class="st9" width="5.1" height="1.4"/>
		</g>
	</g>
	<g>
		<g>
			<rect x="365.3" y="234.6" class="st9" width="5.1" height="1.4"/>
		</g>
	</g>
</g>
<g>
	<g>
		<g>
			<path class="st2" d="M411.2,284.9c0,0,0-14.3,0-19.5c0-6.2-1.2-7.1-3.2-7.9s-2.2-2.3-2.2-3.4c0-1,0-2.2,0-2.2h-9.4
				c0,0,0,1.1,0,2.2c0,1-0.1,2.6-2.2,3.4c-2,0.8-3.2,1.7-3.2,7.9c0,5.2,0,19.5,0,19.5s-0.2,3.5,4.9,3.5c0.2,0,0.3,0,0.5,0
				c0.5,0,0.8,0,1.1,0h0.8h5.6c0,0,0.2,0,0.8,0c0.3,0,0.6,0,1.1,0c0.2,0,0.3,0,0.5,0C411.4,288.4,411.2,284.9,411.2,284.9z"/>
		</g>
	</g>
	<g>
		<g>
			<g>
				<rect x="391.1" y="264.7" class="st48" width="16.5" height="13.8"/>
			</g>
		</g>
		<g>
			<g>
				<rect x="391.1" y="264.7" class="st1" width="16.5" height="2.7"/>
			</g>
		</g>
		<g>
			<g>
				<rect x="391.1" y="275.7" class="st1" width="16.5" height="2.7"/>
			</g>
		</g>
		<g>
			<g>
				<path class="st49" d="M404,268.7h-11.4c0,0-0.1,0-0.1,0.1v0.5c0,0,0,0.1,0.1,0.1H404c0,0,0.1,0,0.1-0.1L404,268.7L404,268.7z"/>
			</g>
		</g>
		<g>
			<g>
				<path class="st49" d="M401.2,269.9h-8.6c0,0-0.1,0-0.1,0.1v0.5c0,0,0,0.1,0.1,0.1h8.6c0,0,0.1,0,0.1-0.1L401.2,269.9
					C401.3,269.9,401.3,269.9,401.2,269.9z"/>
			</g>
		</g>
		<g>
			<g>
				<path class="st49" d="M401.2,271.2h-8.6c0,0-0.1,0-0.1,0.1v0.5c0,0,0,0.1,0.1,0.1h8.6c0,0,0.1,0,0.1-0.1L401.2,271.2
					C401.3,271.3,401.3,271.2,401.2,271.2z"/>
			</g>
		</g>
	</g>
	<g class="st50">
		<g>
			<path class="st51" d="M406.2,255.9c-0.3-0.6-0.3-1.3-0.3-1.8c0-1,0-2.2,0-2.2h-9.4c0,0,0,1.1,0,2.2c0,0.5,0,1.2-0.3,1.8H406.2z"
				/>
		</g>
	</g>
	<g>
		<g>
			<path class="st12" d="M406.3,246.7H396c-0.1,0-0.1,0-0.1,0.1v6.2c0,0.1,0,0.1,0.1,0.1h10.2c0.1,0,0.1,0,0.1-0.1L406.3,246.7
				C406.4,246.8,406.3,246.7,406.3,246.7z"/>
		</g>
	</g>
	<g class="st52">
		<g>
			<path class="st48" d="M395.9,284.9c0,0,0-14.3,0-19.5c0-6.2,0.1-6.7,1.9-7.9c0.9-0.6,1-2.3,1-3.4c0-1,0-2.2,0-2.2h-2.4
				c0,0,0,1.1,0,2.2c0,1-0.1,2.6-2.2,3.4c-2,0.8-3.2,1.7-3.2,7.9c0,5.2,0,19.5,0,19.5s-0.2,3.5,4.9,3.5c0.2,0,0.3,0,0.5,0
				c0.5,0,0.8,0,1.1,0h0.8h2.4C395.7,288.4,395.9,284.9,395.9,284.9z"/>
		</g>
	</g>
	<g>
		<g class="st53">
			<g>
				<path class="st3" d="M405.7,247.1h-0.4c0,0-0.1,0-0.1,0.1v5.8c0,0,0,0.1,0.1,0.1h0.4c0,0,0.1,0,0.1-0.1L405.7,247.1L405.7,247.1
					z"/>
			</g>
		</g>
		<g class="st53">
			<g>
				<path class="st3" d="M404.4,247.1H404c0,0-0.1,0-0.1,0.1v5.8c0,0,0,0.1,0.1,0.1h0.4c0,0,0.1,0,0.1-0.1L404.4,247.1
					C404.5,247.1,404.4,247.1,404.4,247.1z"/>
			</g>
		</g>
		<g class="st53">
			<g>
				<path class="st3" d="M403,247.1h-0.4c0,0-0.1,0-0.1,0.1v5.8c0,0,0,0.1,0.1,0.1h0.4c0,0,0.1,0,0.1-0.1L403,247.1
					C403.1,247.1,403,247.1,403,247.1z"/>
			</g>
		</g>
		<g class="st53">
			<g>
				<path class="st3" d="M401.7,247.1h-0.4c0,0-0.1,0-0.1,0.1v5.8c0,0,0,0.1,0.1,0.1h0.4c0,0,0.1,0,0.1-0.1L401.7,247.1L401.7,247.1
					z"/>
			</g>
		</g>
		<g class="st53">
			<g>
				<path class="st3" d="M400.5,247.1h-0.4c0,0-0.1,0-0.1,0.1v5.8c0,0,0,0.1,0.1,0.1h0.4c0,0,0.1,0,0.1-0.1L400.5,247.1
					C400.6,247.1,400.6,247.1,400.5,247.1z"/>
			</g>
		</g>
		<g class="st53">
			<g>
				<path class="st3" d="M399.4,247.1H399c0,0-0.1,0-0.1,0.1v5.8c0,0,0,0.1,0.1,0.1h0.4c0,0,0.1,0,0.1-0.1L399.4,247.1L399.4,247.1z
					"/>
			</g>
		</g>
		<g class="st53">
			<g>
				<path class="st3" d="M398.2,247.1h-0.4c0,0-0.1,0-0.1,0.1v5.8c0,0,0,0.1,0.1,0.1h0.4c0,0,0.1,0,0.1-0.1L398.2,247.1L398.2,247.1
					z"/>
			</g>
		</g>
		<g class="st53">
			<g>
				<path class="st3" d="M396.9,247.1h-0.4c0,0-0.1,0-0.1,0.1v5.8c0,0,0,0.1,0.1,0.1h0.4c0,0,0.1,0,0.1-0.1L396.9,247.1L396.9,247.1
					z"/>
			</g>
		</g>
	</g>
	<g>
		<g>
			<rect x="395.2" y="250.5" class="st1" width="11.8" height="2.8"/>
		</g>
	</g>
</g>
<g>
	<g>
		<g>
			<path class="st1" d="M394.8,276l-2.5-2.9l0,0v-1.8H379v1.8l0,0l-2.5,2.9c-0.1,0.1-0.1,0.2-0.1,0.3v9.5c0,0.1,0,0.2,0.1,0.3l1,1.6
				c0.3,0.4,0.7,0.7,1.2,0.7h14c0.5,0,0.9-0.3,1.2-0.7l1-1.6c0-0.1,0.1-0.2,0.1-0.3v-9.5C394.9,276.2,394.8,276.1,394.8,276z"/>
		</g>
	</g>
	<g>
		<g>
			<g>
				<rect x="379.9" y="277.2" class="st12" width="15" height="8.2"/>
			</g>
		</g>
		<g>
			<g>
				<rect x="379.9" y="277.2" class="st2" width="2.9" height="8.2"/>
			</g>
		</g>
		<g>
			<g>
				<path class="st9" d="M393.6,279.8h-8.9c-0.2,0-0.4-0.2-0.4-0.4V279c0-0.2,0.2-0.3,0.4-0.3h8.9c0.2,0,0.4,0.2,0.4,0.4v0.4
					C393.9,279.7,393.8,279.8,393.6,279.8z"/>
			</g>
		</g>
		<g>
			<g>
				<path class="st9" d="M393.6,281.8h-8.9c-0.2,0-0.4-0.2-0.4-0.4V281c0-0.2,0.2-0.4,0.4-0.4h8.9c0.2,0,0.4,0.2,0.4,0.4v0.4
					C393.9,281.6,393.8,281.8,393.6,281.8z"/>
			</g>
		</g>
	</g>
	<g class="st54">
		<g>
			<polyline class="st55" points="392.2,273.1 392.2,271.2 379,271.2 379,273.1 			"/>
		</g>
	</g>
	<g>
		<g>
			<g>
				<path class="st12" d="M393.5,270h-15.7v-3.5c0-0.9,0.7-1.5,1.5-1.5h12.6c0.9,0,1.5,0.7,1.5,1.5v3.5H393.5z"/>
			</g>
		</g>
		<g>
			<g>
				<g>
					<path class="st56" d="M379.1,265.7h-0.2c-0.1,0-0.2,0.1-0.2,0.2v4.9c0,0.1,0.1,0.2,0.2,0.2h0.2c0.1,0,0.2-0.1,0.2-0.2v-4.9
						C379.3,265.8,379.2,265.7,379.1,265.7z"/>
				</g>
			</g>
			<g>
				<g>
					<path class="st56" d="M380.4,265.7h-0.2c-0.1,0-0.2,0.1-0.2,0.2v4.9c0,0.1,0.1,0.2,0.2,0.2h0.2c0.1,0,0.2-0.1,0.2-0.2v-4.9
						C380.6,265.8,380.5,265.7,380.4,265.7z"/>
				</g>
			</g>
			<g>
				<g>
					<path class="st56" d="M381.7,265.7h-0.2c-0.1,0-0.2,0.1-0.2,0.2v4.9c0,0.1,0.1,0.2,0.2,0.2h0.2c0.1,0,0.2-0.1,0.2-0.2v-4.9
						C381.9,265.8,381.8,265.7,381.7,265.7z"/>
				</g>
			</g>
			<g>
				<g>
					<path class="st56" d="M383,265.7h-0.2c-0.1,0-0.2,0.1-0.2,0.2v4.9c0,0.1,0.1,0.2,0.2,0.2h0.2c0.1,0,0.2-0.1,0.2-0.2v-4.9
						C383.2,265.8,383.1,265.7,383,265.7z"/>
				</g>
			</g>
			<g>
				<g>
					<path class="st56" d="M384.3,265.7h-0.2c-0.1,0-0.2,0.1-0.2,0.2v4.9c0,0.1,0.1,0.2,0.2,0.2h0.2c0.1,0,0.2-0.1,0.2-0.2v-4.9
						C384.5,265.8,384.4,265.7,384.3,265.7z"/>
				</g>
			</g>
			<g>
				<g>
					<path class="st56" d="M385.6,265.7h-0.2c-0.1,0-0.2,0.1-0.2,0.2v4.9c0,0.1,0.1,0.2,0.2,0.2h0.2c0.1,0,0.2-0.1,0.2-0.2v-4.9
						C385.8,265.8,385.7,265.7,385.6,265.7z"/>
				</g>
			</g>
			<g>
				<g>
					<path class="st56" d="M386.9,265.7h-0.2c-0.1,0-0.2,0.1-0.2,0.2v4.9c0,0.1,0.1,0.2,0.2,0.2h0.2c0.1,0,0.2-0.1,0.2-0.2v-4.9
						C387.1,265.8,387.1,265.7,386.9,265.7z"/>
				</g>
			</g>
			<g>
				<g>
					<path class="st56" d="M388.3,265.7h-0.2c-0.1,0-0.2,0.1-0.2,0.2v4.9c0,0.1,0.1,0.2,0.2,0.2h0.2c0.1,0,0.2-0.1,0.2-0.2v-4.9
						C388.5,265.8,388.4,265.7,388.3,265.7z"/>
				</g>
			</g>
			<g>
				<g>
					<path class="st56" d="M389.7,265.7h-0.2c-0.1,0-0.2,0.1-0.2,0.2v4.9c0,0.1,0.1,0.2,0.2,0.2h0.2c0.1,0,0.2-0.1,0.2-0.2v-4.9
						C389.9,265.8,389.8,265.7,389.7,265.7z"/>
				</g>
			</g>
			<g>
				<g>
					<path class="st56" d="M391.1,265.7h-0.2c-0.1,0-0.2,0.1-0.2,0.2v4.9c0,0.1,0.1,0.2,0.2,0.2h0.2c0.1,0,0.2-0.1,0.2-0.2v-4.9
						C391.2,265.8,391.2,265.7,391.1,265.7z"/>
				</g>
			</g>
			<g>
				<g>
					<path class="st56" d="M392.4,265.7h-0.2c-0.1,0-0.2,0.1-0.2,0.2v4.9c0,0.1,0.1,0.2,0.2,0.2h0.2c0.1,0,0.2-0.1,0.2-0.2v-4.9
						C392.6,265.8,392.5,265.7,392.4,265.7z"/>
				</g>
			</g>
		</g>
		<g>
			<g>
				<rect x="377.3" y="269.7" class="st56" width="16.6" height="2.1"/>
			</g>
		</g>
	</g>
</g>
<g>
	<g>
		<g>
			<g>
				<path class="st14" d="M336,155.7L336,155.7l-20.4-15c-10.7-7.9-17-20.5-17-33.7V79.5h0.1L336,63.9l0,0l37.3,15.6v27.4
					c0,13.2-6.4,25.8-17,33.7L336,155.7z M298.8,79.7V107c0,13.2,6.3,25.7,16.9,33.6l20.2,14.9l20.2-14.9
					c10.6-7.8,16.9-20.4,16.9-33.6V79.7l-37-15.6L298.8,79.7z"/>
			</g>
		</g>
	</g>
	<g>
		<g>
			<g>
				<path class="st13" d="M336,67.3l-34.3,14.3v25.3c0,12.3,5.8,23.9,15.8,31.2l18.5,13.7l18.5-13.7c9.9-7.3,15.8-18.9,15.8-31.2
					V81.6L336,67.3z"/>
			</g>
		</g>
	</g>
	<g>
		<g>
			<g>
				<path class="st10" d="M321.7,133c-8.1-6-12.9-15.5-12.9-25.6V86.8L336,75.4l27.3,11.4v20.7c0,10-4.8,19.6-12.9,25.6L336,143.6
					L321.7,133z"/>
			</g>
		</g>
	</g>
	<g>
		<g>
			<g>
				<g>
					<polygon class="st12" points="333.6,119.7 322.4,108.5 326.7,104.2 333.6,111.1 345.4,99.3 349.7,103.6 					"/>
				</g>
			</g>
		</g>
	</g>
</g>
<g>
	<ellipse class="st57" cx="311.1" cy="287.5" rx="9.2" ry="4.4"/>
	<g>
		<ellipse class="st58" cx="312.2" cy="286.3" rx="9.2" ry="4.4"/>
		<rect x="303" y="284.5" class="st58" width="18.4" height="2.2"/>
		<ellipse class="st59" cx="312.2" cy="284.7" rx="9.2" ry="4.4"/>
		<ellipse class="st60" cx="312.2" cy="284.7" rx="7.3" ry="3.4"/>
		<g>
			<g>
				<path class="st58" d="M310.1,285l-1.1-0.6l0.9-0.5l1.1,0.6c0.5,0.3,1.4,0.3,2,0s0.6-0.8,0-1l-1.2-0.6l0.9-0.5l1.2,0.6
					c1,0.5,1,1.4,0,2C312.8,285.5,311.2,285.5,310.1,285z"/>
			</g>
			<g>
				<polygon class="st58" points="314.5,285.8 310.4,283.6 311.3,283.1 315.4,285.3 				"/>
			</g>
			<g>
				<polygon class="st58" points="315.9,285 311.8,282.9 312.7,282.4 316.8,284.6 				"/>
			</g>
			<g>
				<polygon class="st58" points="309.8,287 310.2,284.4 309,284.4 308.7,286.4 				"/>
			</g>
		</g>
	</g>
	<g>
		<ellipse class="st58" cx="312.2" cy="283.2" rx="9.2" ry="4.4"/>
		<rect x="303" y="281.4" class="st58" width="18.4" height="2.2"/>
		<ellipse class="st59" cx="312.2" cy="281.6" rx="9.2" ry="4.4"/>
		<ellipse class="st60" cx="312.2" cy="281.6" rx="7.3" ry="3.4"/>
		<g>
			<g>
				<path class="st58" d="M310.1,281.9l-1.1-0.6l0.9-0.5l1.1,0.6c0.5,0.3,1.4,0.3,2,0s0.6-0.8,0-1l-1.2-0.6l0.9-0.5l1.2,0.6
					c1,0.5,1,1.4,0,2C312.8,282.4,311.2,282.4,310.1,281.9z"/>
			</g>
			<g>
				<polygon class="st58" points="314.5,282.7 310.4,280.5 311.3,280 315.4,282.2 				"/>
			</g>
			<g>
				<polygon class="st58" points="315.9,281.9 311.8,279.7 312.7,279.3 316.8,281.4 				"/>
			</g>
			<g>
				<polygon class="st58" points="309.8,283.9 310.2,281.3 309,281.3 308.7,283.3 				"/>
			</g>
		</g>
	</g>
	<g>
		<ellipse class="st58" cx="312.2" cy="280.1" rx="9.2" ry="4.4"/>
		<rect x="303" y="278.3" class="st58" width="18.4" height="2.2"/>
		<ellipse class="st59" cx="312.2" cy="278.5" rx="9.2" ry="4.4"/>
		<ellipse class="st60" cx="312.2" cy="278.5" rx="7.3" ry="3.4"/>
		<g>
			<g>
				<path class="st58" d="M310.1,278.8l-1.1-0.6l0.9-0.5l1.1,0.6c0.5,0.3,1.4,0.3,2,0s0.6-0.8,0-1l-1.2-0.6l0.9-0.5l1.2,0.6
					c1,0.5,1,1.4,0,2C312.8,279.3,311.2,279.3,310.1,278.8z"/>
			</g>
			<g>
				<polygon class="st58" points="314.5,279.5 310.4,277.4 311.3,276.9 315.4,279.1 				"/>
			</g>
			<g>
				<polygon class="st58" points="315.9,278.8 311.8,276.6 312.7,276.2 316.8,278.3 				"/>
			</g>
			<g>
				<polygon class="st58" points="309.8,280.8 310.2,278.2 309,278.2 308.7,280.1 				"/>
			</g>
		</g>
	</g>
	<g>
		<ellipse class="st58" cx="312.2" cy="277" rx="9.2" ry="4.4"/>
		<rect x="303" y="275.2" class="st58" width="18.4" height="2.2"/>
		<ellipse class="st59" cx="312.2" cy="275.3" rx="9.2" ry="4.4"/>
		<ellipse class="st60" cx="312.2" cy="275.3" rx="7.3" ry="3.4"/>
		<g>
			<g>
				<path class="st58" d="M310.1,275.6L309,275l0.9-0.5l1.1,0.6c0.5,0.3,1.4,0.3,2,0s0.6-0.8,0-1l-1.2-0.6l0.9-0.5l1.2,0.6
					c1,0.5,1,1.4,0,2C312.8,276.2,311.2,276.2,310.1,275.6z"/>
			</g>
			<g>
				<polygon class="st58" points="314.5,276.4 310.4,274.3 311.3,273.8 315.4,276 				"/>
			</g>
			<g>
				<polygon class="st58" points="315.9,275.7 311.8,273.5 312.7,273 316.8,275.2 				"/>
			</g>
			<g>
				<polygon class="st58" points="309.8,277.6 310.2,275.1 309,275 308.7,277 				"/>
			</g>
		</g>
	</g>
	<g>
		<ellipse class="st58" cx="312.2" cy="273.9" rx="9.2" ry="4.4"/>
		<rect x="303" y="272.1" class="st58" width="18.4" height="2.2"/>
		<ellipse class="st59" cx="312.2" cy="272.2" rx="9.2" ry="4.4"/>
		<ellipse class="st60" cx="312.2" cy="272.2" rx="7.3" ry="3.4"/>
		<g>
			<g>
				<path class="st58" d="M310.1,272.5l-1.1-0.6l0.9-0.5l1.1,0.6c0.5,0.3,1.4,0.3,2,0s0.6-0.8,0-1l-1.2-0.6l0.9-0.5l1.2,0.6
					c1,0.5,1,1.4,0,2C312.8,273.1,311.2,273.1,310.1,272.5z"/>
			</g>
			<g>
				<polygon class="st58" points="314.5,273.3 310.4,271.1 311.3,270.7 315.4,272.8 				"/>
			</g>
			<g>
				<polygon class="st58" points="315.9,272.6 311.8,270.4 312.7,269.9 316.8,272.1 				"/>
			</g>
			<g>
				<polygon class="st58" points="309.8,274.5 310.2,272 309,271.9 308.7,273.9 				"/>
			</g>
		</g>
	</g>
	<g>
		<ellipse class="st58" cx="312.2" cy="270.7" rx="9.2" ry="4.4"/>
		<rect x="303" y="268.9" class="st58" width="18.4" height="2.2"/>
		<ellipse class="st59" cx="312.2" cy="269.1" rx="9.2" ry="4.4"/>
		<ellipse class="st60" cx="312.2" cy="269.1" rx="7.3" ry="3.4"/>
		<g>
			<g>
				<path class="st58" d="M310.1,269.4l-1.1-0.6l0.9-0.5l1.1,0.6c0.5,0.3,1.4,0.3,2,0s0.6-0.8,0-1l-1.2-0.6l0.9-0.5l1.2,0.6
					c1,0.5,1,1.4,0,2C312.8,270,311.2,270,310.1,269.4z"/>
			</g>
			<g>
				<polygon class="st58" points="314.5,270.2 310.4,268 311.3,267.6 315.4,269.7 				"/>
			</g>
			<g>
				<polygon class="st58" points="315.9,269.4 311.8,267.3 312.7,266.8 316.8,269 				"/>
			</g>
			<g>
				<polygon class="st58" points="309.8,271.4 310.2,268.9 309,268.8 308.7,270.8 				"/>
			</g>
		</g>
	</g>
	<g>
		<ellipse class="st58" cx="312.2" cy="267.6" rx="9.2" ry="4.4"/>
		<rect x="303" y="265.8" class="st58" width="18.4" height="2.2"/>
		<ellipse class="st59" cx="312.2" cy="266" rx="9.2" ry="4.4"/>
		<ellipse class="st60" cx="312.2" cy="266" rx="7.3" ry="3.4"/>
		<g>
			<g>
				<path class="st58" d="M310.1,266.3l-1.1-0.6l0.9-0.5l1.1,0.6c0.5,0.3,1.4,0.3,2,0s0.6-0.8,0-1l-1.2-0.6l0.9-0.5l1.2,0.6
					c1,0.5,1,1.4,0,2C312.8,266.8,311.2,266.8,310.1,266.3z"/>
			</g>
			<g>
				<polygon class="st58" points="314.5,267.1 310.4,264.9 311.3,264.4 315.4,266.6 				"/>
			</g>
			<g>
				<polygon class="st58" points="315.9,266.3 311.8,264.2 312.7,263.7 316.8,265.9 				"/>
			</g>
			<g>
				<polygon class="st58" points="309.8,268.3 310.2,265.7 309,265.7 308.7,267.7 				"/>
			</g>
		</g>
	</g>
</g>
<g>
	<path class="st57" d="M338.8,291.5c0,2.4-6.8,4.6-11.7,4.6c-4.9,0-8.9-1.9-8.9-4.3s4-4.3,8.9-4.3
		C332,287.6,338.8,289.1,338.8,291.5z"/>
	<g>
		<ellipse class="st58" cx="328.2" cy="290.7" rx="8.9" ry="4.3"/>
		<rect x="319.3" y="288.9" class="st58" width="17.8" height="2.1"/>
		<ellipse class="st59" cx="328.2" cy="289.1" rx="8.9" ry="4.3"/>
		<ellipse class="st60" cx="328.2" cy="289.1" rx="7.1" ry="3.3"/>
		<g>
			<g>
				<path class="st58" d="M326.1,289.4l-1.1-0.6l0.9-0.5l1.1,0.6c0.5,0.3,1.4,0.3,1.9,0s0.5-0.7,0-1l-1.2-0.6l0.9-0.5l1.2,0.6
					c1,0.5,1,1.4,0,1.9C328.8,289.9,327.1,289.9,326.1,289.4z"/>
			</g>
			<g>
				<polygon class="st58" points="330.3,290.1 326.4,288 327.3,287.6 331.2,289.7 				"/>
			</g>
			<g>
				<polygon class="st58" points="331.7,289.4 327.8,287.3 328.7,286.9 332.6,288.9 				"/>
			</g>
			<g>
				<polygon class="st58" points="325.9,291.3 326.3,288.8 325,288.8 324.7,290.7 				"/>
			</g>
		</g>
	</g>
	<g>
		<ellipse class="st58" cx="328.2" cy="287.2" rx="8.9" ry="4.3"/>
		<rect x="319.3" y="285.5" class="st58" width="17.8" height="2.1"/>
		<ellipse class="st59" cx="328.2" cy="285.6" rx="8.9" ry="4.3"/>
		<ellipse class="st60" cx="328.2" cy="285.6" rx="7.1" ry="3.3"/>
		<g>
			<g>
				<path class="st58" d="M326.1,285.9l-1.1-0.6l0.9-0.5l1.1,0.6c0.5,0.3,1.4,0.3,1.9,0s0.5-0.7,0-1l-1.2-0.6l0.9-0.5l1.2,0.6
					c1,0.5,1,1.4,0,1.9C328.8,286.4,327.1,286.4,326.1,285.9z"/>
			</g>
			<g>
				<polygon class="st58" points="330.3,286.7 326.4,284.6 327.3,284.1 331.2,286.2 				"/>
			</g>
			<g>
				<polygon class="st58" points="331.7,285.9 327.8,283.8 328.7,283.4 332.6,285.5 				"/>
			</g>
			<g>
				<polygon class="st58" points="325.9,287.8 326.3,285.4 325,285.3 324.7,287.2 				"/>
			</g>
		</g>
	</g>
	<g>
		<ellipse class="st58" cx="328.2" cy="283.7" rx="8.9" ry="4.3"/>
		<rect x="319.3" y="282" class="st58" width="17.8" height="2.1"/>
		<ellipse class="st59" cx="328.2" cy="282.1" rx="8.9" ry="4.3"/>
		<ellipse class="st60" cx="328.2" cy="282.1" rx="7.1" ry="3.3"/>
		<g>
			<g>
				<path class="st58" d="M326.1,282.4l-1.1-0.6l0.9-0.5l1.1,0.6c0.5,0.3,1.4,0.3,1.9,0s0.5-0.7,0-1l-1.2-0.6l0.9-0.5l1.2,0.6
					c1,0.5,1,1.4,0,1.9S327.1,283,326.1,282.4z"/>
			</g>
			<g>
				<polygon class="st58" points="330.3,283.2 326.4,281.1 327.3,280.6 331.2,282.7 				"/>
			</g>
			<g>
				<polygon class="st58" points="331.7,282.5 327.8,280.4 328.7,279.9 332.6,282 				"/>
			</g>
			<g>
				<polygon class="st58" points="325.9,284.4 326.3,281.9 325,281.9 324.7,283.8 				"/>
			</g>
		</g>
	</g>
</g>
<g>
	<g>
		<g>
			<g>
				<path class="st12" d="M164.8,69.9c0,0.5-0.4,1-1,1c-0.5,0-1-0.4-1-1c0-0.5,0.4-1,1-1C164.3,68.9,164.8,69.3,164.8,69.9z"/>
			</g>
		</g>
	</g>
	<g>
		<g>
			<g>
				<path class="st12" d="M170.5,69.9c0,0.5-0.4,1-1,1c-0.5,0-1-0.4-1-1c0-0.5,0.4-1,1-1S170.5,69.3,170.5,69.9z"/>
			</g>
		</g>
	</g>
	<g>
		<g>
			<g>
				<circle class="st12" cx="175.3" cy="69.9" r="1"/>
			</g>
		</g>
	</g>
	<g>
		<g>
			<g>
				<circle class="st12" cx="181.1" cy="69.9" r="1"/>
			</g>
		</g>
	</g>
	<g>
		<g>
			<g>
				<circle class="st12" cx="186.8" cy="69.9" r="1"/>
			</g>
		</g>
	</g>
	<g>
		<g>
			<g>
				<path class="st12" d="M164.8,75.5c0,0.5-0.4,1-1,1c-0.5,0-1-0.4-1-1c0-0.5,0.4-1,1-1C164.3,74.5,164.8,75,164.8,75.5z"/>
			</g>
		</g>
	</g>
	<g>
		<g>
			<g>
				<path class="st12" d="M170.5,75.5c0,0.5-0.4,1-1,1c-0.5,0-1-0.4-1-1c0-0.5,0.4-1,1-1S170.5,75,170.5,75.5z"/>
			</g>
		</g>
	</g>
	<g>
		<g>
			<g>
				<path class="st12" d="M176.3,75.5c0,0.5-0.4,1-1,1c-0.5,0-1-0.4-1-1c0-0.5,0.4-1,1-1C175.9,74.5,176.3,75,176.3,75.5z"/>
			</g>
		</g>
	</g>
	<g>
		<g>
			<g>
				<path class="st12" d="M182.1,75.5c0,0.5-0.4,1-1,1c-0.5,0-1-0.4-1-1c0-0.5,0.4-1,1-1C181.6,74.5,182.1,75,182.1,75.5z"/>
			</g>
		</g>
	</g>
	<g>
		<g>
			<g>
				<path class="st12" d="M187.8,75.5c0,0.5-0.4,1-1,1c-0.5,0-1-0.4-1-1c0-0.5,0.4-1,1-1C187.4,74.5,187.8,75,187.8,75.5z"/>
			</g>
		</g>
	</g>
	<g>
		<g>
			<g>
				<path class="st12" d="M164.8,81.1c0,0.5-0.4,1-1,1c-0.5,0-1-0.4-1-1c0-0.5,0.4-1,1-1C164.3,80.1,164.8,80.6,164.8,81.1z"/>
			</g>
		</g>
	</g>
	<g>
		<g>
			<g>
				<path class="st12" d="M170.5,81.1c0,0.5-0.4,1-1,1c-0.5,0-1-0.4-1-1c0-0.5,0.4-1,1-1S170.5,80.6,170.5,81.1z"/>
			</g>
		</g>
	</g>
	<g>
		<g>
			<g>
				<path class="st12" d="M176.3,81.1c0,0.5-0.4,1-1,1c-0.5,0-1-0.4-1-1c0-0.5,0.4-1,1-1C175.9,80.1,176.3,80.6,176.3,81.1z"/>
			</g>
		</g>
	</g>
	<g>
		<g>
			<g>
				<path class="st12" d="M182.1,81.1c0,0.5-0.4,1-1,1c-0.5,0-1-0.4-1-1c0-0.5,0.4-1,1-1C181.6,80.1,182.1,80.6,182.1,81.1z"/>
			</g>
		</g>
	</g>
	<g>
		<g>
			<g>
				<path class="st12" d="M187.8,81.1c0,0.5-0.4,1-1,1c-0.5,0-1-0.4-1-1c0-0.5,0.4-1,1-1C187.4,80.1,187.8,80.6,187.8,81.1z"/>
			</g>
		</g>
	</g>
	<g>
		<g>
			<g>
				<path class="st12" d="M164.8,86.7c0,0.5-0.4,1-1,1c-0.5,0-1-0.4-1-1c0-0.5,0.4-1,1-1C164.3,85.8,164.8,86.2,164.8,86.7z"/>
			</g>
		</g>
	</g>
	<g>
		<g>
			<g>
				<path class="st12" d="M170.5,86.7c0,0.5-0.4,1-1,1c-0.5,0-1-0.4-1-1c0-0.5,0.4-1,1-1C170.1,85.8,170.5,86.2,170.5,86.7z"/>
			</g>
		</g>
	</g>
	<g>
		<g>
			<g>
				<circle class="st12" cx="175.3" cy="86.7" r="1"/>
			</g>
		</g>
	</g>
	<g>
		<g>
			<g>
				<circle class="st12" cx="181.1" cy="86.7" r="1"/>
			</g>
		</g>
	</g>
	<g>
		<g>
			<g>
				<circle class="st12" cx="186.8" cy="86.7" r="1"/>
			</g>
		</g>
	</g>
	<g>
		<g>
			<g>
				<path class="st12" d="M164.8,92.3c0,0.5-0.4,1-1,1c-0.5,0-1-0.4-1-1c0-0.5,0.4-1,1-1C164.3,91.4,164.8,91.8,164.8,92.3z"/>
			</g>
		</g>
	</g>
	<g>
		<g>
			<g>
				<path class="st12" d="M170.5,92.3c0,0.5-0.4,1-1,1c-0.5,0-1-0.4-1-1c0-0.5,0.4-1,1-1C170.1,91.4,170.5,91.8,170.5,92.3z"/>
			</g>
		</g>
	</g>
	<g>
		<g>
			<g>
				<path class="st12" d="M176.3,92.3c0,0.5-0.4,1-1,1c-0.5,0-1-0.4-1-1c0-0.5,0.4-1,1-1C175.9,91.4,176.3,91.8,176.3,92.3z"/>
			</g>
		</g>
	</g>
	<g>
		<g>
			<g>
				<path class="st12" d="M182.1,92.3c0,0.5-0.4,1-1,1c-0.5,0-1-0.4-1-1c0-0.5,0.4-1,1-1C181.6,91.4,182.1,91.8,182.1,92.3z"/>
			</g>
		</g>
	</g>
	<g>
		<g>
			<g>
				<path class="st12" d="M187.8,92.3c0,0.5-0.4,1-1,1c-0.5,0-1-0.4-1-1c0-0.5,0.4-1,1-1C187.4,91.4,187.8,91.8,187.8,92.3z"/>
			</g>
		</g>
	</g>
</g>
<g>
	<g>
		<g>
			<g>
				<path class="st4" d="M396.7,206c0,0.5-0.4,1-1,1c-0.5,0-1-0.4-1-1c0-0.5,0.4-1,1-1C396.3,205,396.7,205.4,396.7,206z"/>
			</g>
		</g>
	</g>
	<g>
		<g>
			<g>
				<path class="st4" d="M402.4,206c0,0.5-0.4,1-1,1s-1-0.4-1-1c0-0.5,0.4-1,1-1S402.4,205.4,402.4,206z"/>
			</g>
		</g>
	</g>
	<g>
		<g>
			<g>
				<circle class="st4" cx="407.2" cy="206" r="1"/>
			</g>
		</g>
	</g>
	<g>
		<g>
			<g>
				<circle class="st4" cx="413" cy="206" r="1"/>
			</g>
		</g>
	</g>
	<g>
		<g>
			<g>
				<circle class="st4" cx="418.8" cy="206" r="1"/>
			</g>
		</g>
	</g>
	<g>
		<g>
			<g>
				<path class="st4" d="M396.7,211.6c0,0.5-0.4,1-1,1c-0.5,0-1-0.4-1-1c0-0.5,0.4-1,1-1C396.3,210.6,396.7,211,396.7,211.6z"/>
			</g>
		</g>
	</g>
	<g>
		<g>
			<g>
				<path class="st4" d="M402.4,211.6c0,0.5-0.4,1-1,1s-1-0.4-1-1c0-0.5,0.4-1,1-1S402.4,211,402.4,211.6z"/>
			</g>
		</g>
	</g>
	<g>
		<g>
			<g>
				<path class="st4" d="M408.2,211.6c0,0.5-0.4,1-1,1c-0.5,0-1-0.4-1-1c0-0.5,0.4-1,1-1C407.8,210.6,408.2,211,408.2,211.6z"/>
			</g>
		</g>
	</g>
	<g>
		<g>
			<g>
				<path class="st4" d="M414,211.6c0,0.5-0.4,1-1,1c-0.5,0-1-0.4-1-1c0-0.5,0.4-1,1-1C413.5,210.6,414,211,414,211.6z"/>
			</g>
		</g>
	</g>
	<g>
		<g>
			<g>
				<path class="st4" d="M419.7,211.6c0,0.5-0.4,1-1,1c-0.5,0-1-0.4-1-1c0-0.5,0.4-1,1-1C419.3,210.6,419.7,211,419.7,211.6z"/>
			</g>
		</g>
	</g>
	<g>
		<g>
			<g>
				<path class="st4" d="M396.7,217.2c0,0.5-0.4,1-1,1c-0.5,0-1-0.4-1-1c0-0.5,0.4-1,1-1C396.3,216.2,396.7,216.7,396.7,217.2z"/>
			</g>
		</g>
	</g>
	<g>
		<g>
			<g>
				<path class="st4" d="M402.4,217.2c0,0.5-0.4,1-1,1s-1-0.4-1-1c0-0.5,0.4-1,1-1S402.4,216.7,402.4,217.2z"/>
			</g>
		</g>
	</g>
	<g>
		<g>
			<g>
				<path class="st4" d="M408.2,217.2c0,0.5-0.4,1-1,1c-0.5,0-1-0.4-1-1c0-0.5,0.4-1,1-1C407.8,216.2,408.2,216.7,408.2,217.2z"/>
			</g>
		</g>
	</g>
	<g>
		<g>
			<g>
				<path class="st4" d="M414,217.2c0,0.5-0.4,1-1,1c-0.5,0-1-0.4-1-1c0-0.5,0.4-1,1-1C413.5,216.2,414,216.7,414,217.2z"/>
			</g>
		</g>
	</g>
	<g>
		<g>
			<g>
				<path class="st4" d="M419.7,217.2c0,0.5-0.4,1-1,1c-0.5,0-1-0.4-1-1c0-0.5,0.4-1,1-1C419.3,216.2,419.7,216.7,419.7,217.2z"/>
			</g>
		</g>
	</g>
	<g>
		<g>
			<g>
				<path class="st4" d="M396.7,222.8c0,0.5-0.4,1-1,1c-0.5,0-1-0.4-1-1c0-0.5,0.4-1,1-1C396.3,221.8,396.7,222.3,396.7,222.8z"/>
			</g>
		</g>
	</g>
	<g>
		<g>
			<g>
				<path class="st4" d="M402.4,222.8c0,0.5-0.4,1-1,1s-1-0.4-1-1c0-0.5,0.4-1,1-1S402.4,222.3,402.4,222.8z"/>
			</g>
		</g>
	</g>
	<g>
		<g>
			<g>
				<circle class="st4" cx="407.2" cy="222.8" r="1"/>
			</g>
		</g>
	</g>
	<g>
		<g>
			<g>
				<circle class="st4" cx="413" cy="222.8" r="1"/>
			</g>
		</g>
	</g>
	<g>
		<g>
			<g>
				<circle class="st4" cx="418.8" cy="222.8" r="1"/>
			</g>
		</g>
	</g>
	<g>
		<g>
			<g>
				<path class="st4" d="M396.7,228.4c0,0.5-0.4,1-1,1c-0.5,0-1-0.4-1-1c0-0.5,0.4-1,1-1C396.3,227.4,396.7,227.9,396.7,228.4z"/>
			</g>
		</g>
	</g>
	<g>
		<g>
			<g>
				<path class="st4" d="M402.4,228.4c0,0.5-0.4,1-1,1s-1-0.4-1-1c0-0.5,0.4-1,1-1S402.4,227.9,402.4,228.4z"/>
			</g>
		</g>
	</g>
	<g>
		<g>
			<g>
				<path class="st4" d="M408.2,228.4c0,0.5-0.4,1-1,1c-0.5,0-1-0.4-1-1c0-0.5,0.4-1,1-1C407.8,227.4,408.2,227.9,408.2,228.4z"/>
			</g>
		</g>
	</g>
	<g>
		<g>
			<g>
				<path class="st4" d="M414,228.4c0,0.5-0.4,1-1,1c-0.5,0-1-0.4-1-1c0-0.5,0.4-1,1-1C413.5,227.4,414,227.9,414,228.4z"/>
			</g>
		</g>
	</g>
	<g>
		<g>
			<g>
				<path class="st4" d="M419.7,228.4c0,0.5-0.4,1-1,1c-0.5,0-1-0.4-1-1c0-0.5,0.4-1,1-1C419.3,227.4,419.7,227.9,419.7,228.4z"/>
			</g>
		</g>
	</g>
</g>
<g>
	<g>
		<g>
			<g>
				<path class="st10" d="M386.2,89.4c0,0.3-0.2,0.5-0.5,0.5s-0.5-0.2-0.5-0.5s0.2-0.5,0.5-0.5S386.2,89.1,386.2,89.4z"/>
			</g>
		</g>
	</g>
	<g>
		<g>
			<g>
				<path class="st10" d="M389.3,89.4c0,0.3-0.2,0.5-0.5,0.5s-0.5-0.2-0.5-0.5s0.2-0.5,0.5-0.5S389.3,89.1,389.3,89.4z"/>
			</g>
		</g>
	</g>
	<g>
		<g>
			<g>
				<circle class="st10" cx="391.9" cy="89.4" r="0.5"/>
			</g>
		</g>
	</g>
	<g>
		<g>
			<g>
				<circle class="st10" cx="395" cy="89.4" r="0.5"/>
			</g>
		</g>
	</g>
	<g>
		<g>
			<g>
				<circle class="st10" cx="398.1" cy="89.4" r="0.5"/>
			</g>
		</g>
	</g>
	<g>
		<g>
			<g>
				<path class="st10" d="M386.2,92.4c0,0.3-0.2,0.5-0.5,0.5s-0.5-0.2-0.5-0.5s0.2-0.5,0.5-0.5S386.2,92.1,386.2,92.4z"/>
			</g>
		</g>
	</g>
	<g>
		<g>
			<g>
				<path class="st10" d="M389.3,92.4c0,0.3-0.2,0.5-0.5,0.5s-0.5-0.2-0.5-0.5s0.2-0.5,0.5-0.5S389.3,92.1,389.3,92.4z"/>
			</g>
		</g>
	</g>
	<g>
		<g>
			<g>
				<path class="st10" d="M392.4,92.4c0,0.3-0.2,0.5-0.5,0.5s-0.5-0.2-0.5-0.5s0.2-0.5,0.5-0.5S392.4,92.1,392.4,92.4z"/>
			</g>
		</g>
	</g>
	<g>
		<g>
			<g>
				<path class="st10" d="M395.5,92.4c0,0.3-0.2,0.5-0.5,0.5s-0.5-0.2-0.5-0.5s0.2-0.5,0.5-0.5S395.5,92.1,395.5,92.4z"/>
			</g>
		</g>
	</g>
	<g>
		<g>
			<g>
				<path class="st10" d="M398.6,92.4c0,0.3-0.2,0.5-0.5,0.5s-0.5-0.2-0.5-0.5s0.2-0.5,0.5-0.5S398.6,92.1,398.6,92.4z"/>
			</g>
		</g>
	</g>
	<g>
		<g>
			<g>
				<path class="st10" d="M386.2,95.5c0,0.3-0.2,0.5-0.5,0.5s-0.5-0.2-0.5-0.5s0.2-0.5,0.5-0.5S386.2,95.2,386.2,95.5z"/>
			</g>
		</g>
	</g>
	<g>
		<g>
			<g>
				<path class="st10" d="M389.3,95.5c0,0.3-0.2,0.5-0.5,0.5s-0.5-0.2-0.5-0.5s0.2-0.5,0.5-0.5S389.3,95.2,389.3,95.5z"/>
			</g>
		</g>
	</g>
	<g>
		<g>
			<g>
				<path class="st10" d="M392.4,95.5c0,0.3-0.2,0.5-0.5,0.5s-0.5-0.2-0.5-0.5s0.2-0.5,0.5-0.5S392.4,95.2,392.4,95.5z"/>
			</g>
		</g>
	</g>
	<g>
		<g>
			<g>
				<path class="st10" d="M395.5,95.5c0,0.3-0.2,0.5-0.5,0.5s-0.5-0.2-0.5-0.5s0.2-0.5,0.5-0.5C395.3,94.9,395.5,95.2,395.5,95.5z"
					/>
			</g>
		</g>
	</g>
	<g>
		<g>
			<g>
				<path class="st10" d="M398.6,95.5c0,0.3-0.2,0.5-0.5,0.5s-0.5-0.2-0.5-0.5s0.2-0.5,0.5-0.5C398.4,94.9,398.6,95.2,398.6,95.5z"
					/>
			</g>
		</g>
	</g>
	<g>
		<g>
			<g>
				<path class="st10" d="M386.2,98.5c0,0.3-0.2,0.5-0.5,0.5s-0.5-0.2-0.5-0.5s0.2-0.5,0.5-0.5S386.2,98.2,386.2,98.5z"/>
			</g>
		</g>
	</g>
	<g>
		<g>
			<g>
				<path class="st10" d="M389.3,98.5c0,0.3-0.2,0.5-0.5,0.5s-0.5-0.2-0.5-0.5s0.2-0.5,0.5-0.5S389.3,98.2,389.3,98.5z"/>
			</g>
		</g>
	</g>
	<g>
		<g>
			<g>
				<circle class="st10" cx="391.9" cy="98.5" r="0.5"/>
			</g>
		</g>
	</g>
	<g>
		<g>
			<g>
				<circle class="st10" cx="395" cy="98.5" r="0.5"/>
			</g>
		</g>
	</g>
	<g>
		<g>
			<g>
				<circle class="st10" cx="398.1" cy="98.5" r="0.5"/>
			</g>
		</g>
	</g>
	<g>
		<g>
			<g>
				<path class="st10" d="M386.2,101.5c0,0.3-0.2,0.5-0.5,0.5s-0.5-0.2-0.5-0.5s0.2-0.5,0.5-0.5S386.2,101.2,386.2,101.5z"/>
			</g>
		</g>
	</g>
	<g>
		<g>
			<g>
				<path class="st10" d="M389.3,101.5c0,0.3-0.2,0.5-0.5,0.5s-0.5-0.2-0.5-0.5s0.2-0.5,0.5-0.5S389.3,101.2,389.3,101.5z"/>
			</g>
		</g>
	</g>
	<g>
		<g>
			<g>
				<path class="st10" d="M392.4,101.5c0,0.3-0.2,0.5-0.5,0.5s-0.5-0.2-0.5-0.5s0.2-0.5,0.5-0.5S392.4,101.2,392.4,101.5z"/>
			</g>
		</g>
	</g>
	<g>
		<g>
			<g>
				<path class="st10" d="M395.5,101.5c0,0.3-0.2,0.5-0.5,0.5s-0.5-0.2-0.5-0.5s0.2-0.5,0.5-0.5S395.5,101.2,395.5,101.5z"/>
			</g>
		</g>
	</g>
	<g>
		<g>
			<g>
				<path class="st10" d="M398.6,101.5c0,0.3-0.2,0.5-0.5,0.5s-0.5-0.2-0.5-0.5s0.2-0.5,0.5-0.5S398.6,101.2,398.6,101.5z"/>
			</g>
		</g>
	</g>
</g>
<g>
	<g>
		<g>
			<g>
				<g>
					<path class="st6" d="M16.8,175.9c0,0.3-0.2,0.5-0.5,0.5s-0.5-0.2-0.5-0.5s0.2-0.5,0.5-0.5C16.6,175.4,16.8,175.6,16.8,175.9z"
						/>
				</g>
			</g>
		</g>
		<g>
			<g>
				<g>
					<path class="st6" d="M19.9,175.9c0,0.3-0.2,0.5-0.5,0.5s-0.5-0.2-0.5-0.5s0.2-0.5,0.5-0.5C19.7,175.3,19.9,175.6,19.9,175.9z"
						/>
				</g>
			</g>
		</g>
		<g>
			<g>
				<g>
					<circle class="st6" cx="22.5" cy="175.9" r="0.5"/>
				</g>
			</g>
		</g>
		<g>
			<g>
				<g>
					<circle class="st6" cx="25.6" cy="175.9" r="0.5"/>
				</g>
			</g>
		</g>
		<g>
			<g>
				<g>
					<circle class="st6" cx="28.7" cy="175.9" r="0.5"/>
				</g>
			</g>
		</g>
		<g>
			<g>
				<g>
					<path class="st6" d="M16.8,178.9c0,0.3-0.2,0.5-0.5,0.5s-0.5-0.2-0.5-0.5s0.2-0.5,0.5-0.5C16.6,178.4,16.8,178.6,16.8,178.9z"
						/>
				</g>
			</g>
		</g>
		<g>
			<g>
				<g>
					<path class="st6" d="M19.9,178.9c0,0.3-0.2,0.5-0.5,0.5s-0.5-0.2-0.5-0.5s0.2-0.5,0.5-0.5C19.7,178.4,19.9,178.6,19.9,178.9z"
						/>
				</g>
			</g>
		</g>
		<g>
			<g>
				<g>
					<path class="st6" d="M23,178.9c0,0.3-0.2,0.5-0.5,0.5s-0.5-0.2-0.5-0.5s0.2-0.5,0.5-0.5S23,178.6,23,178.9z"/>
				</g>
			</g>
		</g>
		<g>
			<g>
				<g>
					<path class="st6" d="M26.1,178.9c0,0.3-0.2,0.5-0.5,0.5s-0.5-0.2-0.5-0.5s0.2-0.5,0.5-0.5S26.1,178.6,26.1,178.9z"/>
				</g>
			</g>
		</g>
		<g>
			<g>
				<g>
					<path class="st6" d="M29.2,178.9c0,0.3-0.2,0.5-0.5,0.5s-0.5-0.2-0.5-0.5s0.2-0.5,0.5-0.5S29.2,178.6,29.2,178.9z"/>
				</g>
			</g>
		</g>
		<g>
			<g>
				<g>
					<path class="st6" d="M16.8,181.9c0,0.3-0.2,0.5-0.5,0.5s-0.5-0.2-0.5-0.5s0.2-0.5,0.5-0.5C16.6,181.4,16.8,181.6,16.8,181.9z"
						/>
				</g>
			</g>
		</g>
		<g>
			<g>
				<g>
					<path class="st6" d="M19.9,181.9c0,0.3-0.2,0.5-0.5,0.5s-0.5-0.2-0.5-0.5s0.2-0.5,0.5-0.5C19.7,181.4,19.9,181.6,19.9,181.9z"
						/>
				</g>
			</g>
		</g>
		<g>
			<g>
				<g>
					<path class="st6" d="M23,181.9c0,0.3-0.2,0.5-0.5,0.5s-0.5-0.2-0.5-0.5s0.2-0.5,0.5-0.5S23,181.6,23,181.9z"/>
				</g>
			</g>
		</g>
		<g>
			<g>
				<g>
					<path class="st6" d="M26.1,181.9c0,0.3-0.2,0.5-0.5,0.5s-0.5-0.2-0.5-0.5s0.2-0.5,0.5-0.5S26.1,181.6,26.1,181.9z"/>
				</g>
			</g>
		</g>
		<g>
			<g>
				<g>
					<path class="st6" d="M29.2,181.9c0,0.3-0.2,0.5-0.5,0.5s-0.5-0.2-0.5-0.5s0.2-0.5,0.5-0.5S29.2,181.6,29.2,181.9z"/>
				</g>
			</g>
		</g>
		<g>
			<g>
				<g>
					<path class="st6" d="M16.8,184.9c0,0.3-0.2,0.5-0.5,0.5s-0.5-0.2-0.5-0.5s0.2-0.5,0.5-0.5C16.6,184.4,16.8,184.7,16.8,184.9z"
						/>
				</g>
			</g>
		</g>
		<g>
			<g>
				<g>
					<path class="st6" d="M19.9,184.9c0,0.3-0.2,0.5-0.5,0.5s-0.5-0.2-0.5-0.5s0.2-0.5,0.5-0.5C19.7,184.4,19.9,184.7,19.9,184.9z"
						/>
				</g>
			</g>
		</g>
		<g>
			<g>
				<g>
					<circle class="st6" cx="22.5" cy="184.9" r="0.5"/>
				</g>
			</g>
		</g>
		<g>
			<g>
				<g>
					<circle class="st6" cx="25.6" cy="184.9" r="0.5"/>
				</g>
			</g>
		</g>
		<g>
			<g>
				<g>
					<circle class="st6" cx="28.7" cy="184.9" r="0.5"/>
				</g>
			</g>
		</g>
		<g>
			<g>
				<g>
					<path class="st6" d="M16.8,188c0,0.3-0.2,0.5-0.5,0.5s-0.5-0.2-0.5-0.5s0.2-0.5,0.5-0.5C16.6,187.5,16.8,187.7,16.8,188z"/>
				</g>
			</g>
		</g>
		<g>
			<g>
				<g>
					<path class="st6" d="M19.9,188c0,0.3-0.2,0.5-0.5,0.5s-0.5-0.2-0.5-0.5s0.2-0.5,0.5-0.5C19.7,187.5,19.9,187.7,19.9,188z"/>
				</g>
			</g>
		</g>
		<g>
			<g>
				<g>
					<path class="st6" d="M23,188c0,0.3-0.2,0.5-0.5,0.5S22,188.3,22,188s0.2-0.5,0.5-0.5S23,187.7,23,188z"/>
				</g>
			</g>
		</g>
		<g>
			<g>
				<g>
					<path class="st6" d="M26.1,188c0,0.3-0.2,0.5-0.5,0.5s-0.5-0.2-0.5-0.5s0.2-0.5,0.5-0.5S26.1,187.7,26.1,188z"/>
				</g>
			</g>
		</g>
		<g>
			<g>
				<g>
					<path class="st6" d="M29.2,188c0,0.3-0.2,0.5-0.5,0.5s-0.5-0.2-0.5-0.5s0.2-0.5,0.5-0.5S29.2,187.7,29.2,188z"/>
				</g>
			</g>
		</g>
	</g>
</g>
</svg>
